<svg xmlns="http://www.w3.org/2000/svg" width="578" height="879" fill="none"><g filter="url(#a)"><path fill="#fff" d="M523.5 46H59l-3.115 3.7A42.044 42.044 0 0 0 46 76.783V802l.135 4.04A29.141 29.141 0 0 0 54 825h464.5a149.203 149.203 0 0 1-1.5-21.107V74.233a64.218 64.218 0 0 1 5.658-26.362L523.5 46Z"/></g><path fill="#1B1D2E" d="M136.204 97.84c.787.147 1.434.54 1.94 1.18.507.64.76 1.373.76 2.2 0 .747-.186 1.407-.56 1.98-.36.56-.886 1-1.58 1.32-.693.32-1.513.48-2.46.48h-6.02V91.04h5.76c.947 0 1.76.153 2.44.46.694.307 1.214.733 1.56 1.28.36.547.54 1.167.54 1.86 0 .813-.22 1.493-.66 2.04-.426.547-1 .933-1.72 1.16Zm-5.12-1.04h2.56c.667 0 1.18-.147 1.54-.44.36-.307.54-.74.54-1.3s-.18-.993-.54-1.3c-.36-.307-.873-.46-1.54-.46h-2.56v3.5Zm2.82 5.92c.68 0 1.207-.16 1.58-.48.387-.32.58-.773.58-1.36 0-.6-.2-1.067-.6-1.4-.4-.347-.94-.52-1.62-.52h-2.76v3.76h2.82Zm13.712 2.42c-1.307 0-2.507-.307-3.6-.92a6.89 6.89 0 0 1-2.6-2.54c-.64-1.093-.96-2.327-.96-3.7 0-1.36.32-2.58.96-3.66a6.85 6.85 0 0 1 2.6-2.56c1.093-.613 2.293-.92 3.6-.92 1.32 0 2.52.307 3.6.92a6.708 6.708 0 0 1 2.58 2.56c.64 1.08.96 2.3.96 3.66 0 1.373-.32 2.607-.96 3.7a6.747 6.747 0 0 1-2.58 2.54c-1.093.613-2.293.92-3.6.92Zm0-2.5c.84 0 1.58-.187 2.22-.56a3.975 3.975 0 0 0 1.5-1.64c.36-.707.54-1.527.54-2.46s-.18-1.747-.54-2.44c-.36-.707-.86-1.247-1.5-1.62s-1.38-.56-2.22-.56c-.84 0-1.587.187-2.24.56-.64.373-1.14.913-1.5 1.62-.36.693-.54 1.507-.54 2.44s.18 1.753.54 2.46c.36.707.86 1.253 1.5 1.64.653.373 1.4.56 2.24.56Zm17.143-4.8c.787.147 1.433.54 1.94 1.18.507.64.76 1.373.76 2.2 0 .747-.187 1.407-.56 1.98-.36.56-.887 1-1.58 1.32-.693.32-1.513.48-2.46.48h-6.02V91.04h5.76c.947 0 1.76.153 2.44.46.693.307 1.213.733 1.56 1.28.36.547.54 1.167.54 1.86 0 .813-.22 1.493-.66 2.04-.427.547-1 .933-1.72 1.16Zm-5.12-1.04h2.56c.667 0 1.18-.147 1.54-.44.36-.307.54-.74.54-1.3s-.18-.993-.54-1.3c-.36-.307-.873-.46-1.54-.46h-2.56v3.5Zm2.82 5.92c.68 0 1.207-.16 1.58-.48.387-.32.58-.773.58-1.36 0-.6-.2-1.067-.6-1.4-.4-.347-.94-.52-1.62-.52h-2.76v3.76h2.82Zm15.792-.38h-5.56l-.92 2.66h-2.94l5.02-13.98h3.26l5.02 13.98h-2.96l-.92-2.66Zm-.76-2.24-2.02-5.84-2.02 5.84h4.04Zm16.016-9.06v2.26h-3.72V105h-2.8V93.3h-3.72v-2.26h10.24Zm10.603 11.3h-5.56l-.92 2.66h-2.94l5.02-13.98h3.26l5.02 13.98h-2.96l-.92-2.66Zm-.76-2.24-2.02-5.84-2.02 5.84h4.04Zm9.316 2.68h4.6V105h-7.4V91.04h2.8v11.74Zm14.26 2.22-5.08-6.22V105h-2.8V91.04h2.8v6.26l5.08-6.26h3.38l-5.76 6.92 5.92 7.04h-3.54Zm10.202.14c-.974 0-1.854-.167-2.64-.5-.774-.333-1.387-.813-1.84-1.44-.454-.627-.687-1.367-.7-2.22h3c.04.573.24 1.027.6 1.36.373.333.88.5 1.52.5.653 0 1.166-.153 1.54-.46.373-.32.56-.733.56-1.24 0-.413-.127-.753-.38-1.02a2.555 2.555 0 0 0-.96-.62c-.374-.16-.894-.333-1.56-.52-.907-.267-1.647-.527-2.22-.78a4.112 4.112 0 0 1-1.46-1.18c-.4-.533-.6-1.24-.6-2.12 0-.827.206-1.547.62-2.16.413-.613.993-1.08 1.74-1.4.746-.333 1.6-.5 2.56-.5 1.44 0 2.606.353 3.5 1.06.906.693 1.406 1.667 1.5 2.92h-3.08a1.561 1.561 0 0 0-.62-1.18c-.374-.32-.874-.48-1.5-.48-.547 0-.987.14-1.32.42-.32.28-.48.687-.48 1.22 0 .373.12.687.36.94.253.24.56.44.92.6.373.147.893.32 1.56.52.906.267 1.646.533 2.22.8a3.995 3.995 0 0 1 1.48 1.2c.413.533.62 1.233.62 2.1 0 .747-.194 1.44-.58 2.08-.387.64-.954 1.153-1.7 1.54-.747.373-1.634.56-2.66.56Zm14.933-11.84v3.5h4.7v2.22h-4.7v3.7h5.3V105h-8.1V91.02h8.1v2.28h-5.3Zm16.204 11.7-3.02-4.7-2.74 4.7h-3.16l4.4-7.04-4.46-6.92h3.22l3.02 4.68 2.72-4.68h3.16l-4.38 7.02 4.46 6.94h-3.22Zm15.531-9.64c0 .747-.18 1.447-.54 2.1-.346.653-.9 1.18-1.66 1.58-.746.4-1.693.6-2.84.6h-2.34V105h-2.8V91.04h5.14c1.08 0 2 .187 2.76.56.76.373 1.327.887 1.7 1.54.387.653.58 1.393.58 2.22Zm-5.16 2.02c.774 0 1.347-.173 1.72-.52.374-.36.56-.86.56-1.5 0-1.36-.76-2.04-2.28-2.04h-2.22v4.06h2.22Zm9.948 5.4h4.6V105h-7.4V91.04h2.8v11.74Zm12.86 2.36c-1.307 0-2.507-.307-3.6-.92a6.89 6.89 0 0 1-2.6-2.54c-.64-1.093-.96-2.327-.96-3.7 0-1.36.32-2.58.96-3.66a6.85 6.85 0 0 1 2.6-2.56c1.093-.613 2.293-.92 3.6-.92 1.32 0 2.52.307 3.6.92a6.708 6.708 0 0 1 2.58 2.56c.64 1.08.96 2.3.96 3.66 0 1.373-.32 2.607-.96 3.7a6.747 6.747 0 0 1-2.58 2.54c-1.093.613-2.293.92-3.6.92Zm0-2.5c.84 0 1.58-.187 2.22-.56a3.975 3.975 0 0 0 1.5-1.64c.36-.707.54-1.527.54-2.46s-.18-1.747-.54-2.44c-.36-.707-.86-1.247-1.5-1.62s-1.38-.56-2.22-.56c-.84 0-1.587.187-2.24.56-.64.373-1.14.913-1.5 1.62-.36.693-.54 1.507-.54 2.44s.18 1.753.54 2.46c.36.707.86 1.253 1.5 1.64.653.373 1.4.56 2.24.56Zm16.423 2.36-3.08-5.44h-1.32V105h-2.8V91.04h5.24c1.08 0 2 .193 2.76.58.76.373 1.327.887 1.7 1.54.387.64.58 1.36.58 2.16 0 .92-.267 1.753-.8 2.5-.533.733-1.327 1.24-2.38 1.52l3.34 5.66h-3.24Zm-4.4-7.54h2.34c.76 0 1.327-.18 1.7-.54.373-.373.56-.887.56-1.54 0-.64-.187-1.133-.56-1.48-.373-.36-.94-.54-1.7-.54h-2.34v4.1Zm18.573 4.88h-5.56l-.92 2.66h-2.94l5.02-13.98h3.26l5.02 13.98h-2.96l-.92-2.66Zm-.76-2.24-2.02-5.84-2.02 5.84h4.04Zm16.016-9.06v2.26h-3.72V105h-2.8V93.3h-3.72v-2.26h10.24Zm4.843 0V105h-2.8V91.04h2.8Zm9.246 14.1c-1.306 0-2.506-.307-3.6-.92a6.89 6.89 0 0 1-2.6-2.54c-.64-1.093-.96-2.327-.96-3.7 0-1.36.32-2.58.96-3.66a6.85 6.85 0 0 1 2.6-2.56c1.094-.613 2.294-.92 3.6-.92 1.32 0 2.52.307 3.6.92a6.694 6.694 0 0 1 2.58 2.56c.64 1.08.96 2.3.96 3.66 0 1.373-.32 2.607-.96 3.7a6.733 6.733 0 0 1-2.58 2.54c-1.093.613-2.293.92-3.6.92Zm0-2.5c.84 0 1.58-.187 2.22-.56a3.975 3.975 0 0 0 1.5-1.64c.36-.707.54-1.527.54-2.46s-.18-1.747-.54-2.44c-.36-.707-.86-1.247-1.5-1.62s-1.38-.56-2.22-.56c-.84 0-1.586.187-2.24.56-.64.373-1.14.913-1.5 1.62-.36.693-.54 1.507-.54 2.44s.18 1.753.54 2.46c.36.707.86 1.253 1.5 1.64.654.373 1.4.56 2.24.56Zm21.164 2.36h-2.8l-6.34-9.58V105h-2.8V91.02h2.8l6.34 9.6v-9.6h2.8V105Zm12.352.14c-.973 0-1.853-.167-2.64-.5-.773-.333-1.386-.813-1.84-1.44-.453-.627-.686-1.367-.7-2.22h3c.04.573.24 1.027.6 1.36.374.333.88.5 1.52.5.654 0 1.167-.153 1.54-.46.374-.32.56-.733.56-1.24 0-.413-.126-.753-.38-1.02a2.54 2.54 0 0 0-.96-.62c-.373-.16-.893-.333-1.56-.52-.906-.267-1.646-.527-2.22-.78a4.12 4.12 0 0 1-1.46-1.18c-.4-.533-.6-1.24-.6-2.12 0-.827.207-1.547.62-2.16.414-.613.994-1.08 1.74-1.4.747-.333 1.6-.5 2.56-.5 1.44 0 2.607.353 3.5 1.06.907.693 1.407 1.667 1.5 2.92h-3.08a1.555 1.555 0 0 0-.62-1.18c-.373-.32-.873-.48-1.5-.48-.546 0-.986.14-1.32.42-.32.28-.48.687-.48 1.22 0 .373.12.687.36.94.254.24.56.44.92.6.374.147.894.32 1.56.52.907.267 1.647.533 2.22.8a3.98 3.98 0 0 1 1.48 1.2c.414.533.62 1.233.62 2.1 0 .747-.193 1.44-.58 2.08-.386.64-.953 1.153-1.7 1.54-.746.373-1.633.56-2.66.56Zm18.948-14.1V105h-2.8v-5.94h-5.98V105h-2.8V91.04h2.8v5.74h5.98v-5.74h2.8Zm9.236 14.1c-1.307 0-2.507-.307-3.6-.92a6.884 6.884 0 0 1-2.6-2.54c-.64-1.093-.96-2.327-.96-3.7 0-1.36.32-2.58.96-3.66a6.842 6.842 0 0 1 2.6-2.56c1.093-.613 2.293-.92 3.6-.92 1.32 0 2.52.307 3.6.92a6.708 6.708 0 0 1 2.58 2.56c.64 1.08.96 2.3.96 3.66 0 1.373-.32 2.607-.96 3.7a6.747 6.747 0 0 1-2.58 2.54c-1.094.613-2.294.92-3.6.92Zm0-2.5c.84 0 1.58-.187 2.22-.56a3.975 3.975 0 0 0 1.5-1.64c.36-.707.54-1.527.54-2.46s-.18-1.747-.54-2.44c-.36-.707-.86-1.247-1.5-1.62s-1.38-.56-2.22-.56c-.84 0-1.587.187-2.24.56-.64.373-1.14.913-1.5 1.62-.36.693-.54 1.507-.54 2.44s.18 1.753.54 2.46c.36.707.86 1.253 1.5 1.64.653.373 1.4.56 2.24.56Zm19.403-7.28c0 .747-.18 1.447-.54 2.1-.347.653-.9 1.18-1.66 1.58-.747.4-1.694.6-2.84.6h-2.34V105h-2.8V91.04h5.14c1.08 0 2 .187 2.76.56.76.373 1.326.887 1.7 1.54.386.653.58 1.393.58 2.22Zm-5.16 2.02c.773 0 1.346-.173 1.72-.52.373-.36.56-.86.56-1.5 0-1.36-.76-2.04-2.28-2.04h-2.22v4.06h2.22ZM127.436 145.969l-2.424 8.364h-1.224l-1.944-6.732-2.016 6.732-1.212.012-2.34-8.376h1.164l1.824 7.092 2.016-7.092h1.224l1.92 7.068 1.836-7.068h1.176Zm7.195 4.824c0 .208-.012.428-.036.66h-5.256c.04.648.26 1.156.66 1.524.408.36.9.54 1.476.54.472 0 .864-.108 1.176-.324.32-.224.544-.52.672-.888h1.176a2.856 2.856 0 0 1-1.056 1.548c-.528.392-1.184.588-1.968.588-.624 0-1.184-.14-1.68-.42a2.995 2.995 0 0 1-1.152-1.188c-.28-.52-.42-1.12-.42-1.8 0-.68.136-1.276.408-1.788a2.836 2.836 0 0 1 1.14-1.176c.496-.28 1.064-.42 1.704-.42.624 0 1.176.136 1.656.408.48.272.848.648 1.104 1.128.264.472.396 1.008.396 1.608Zm-1.128-.228c0-.416-.092-.772-.276-1.068a1.737 1.737 0 0 0-.756-.684c-.312-.16-.66-.24-1.044-.24-.552 0-1.024.176-1.416.528-.384.352-.604.84-.66 1.464h4.152Zm2.737-4.596h1.212l-1.152 2.724h-.768l.708-2.724Zm3.549-.516v8.88h-1.092v-8.88h1.092Zm2.954 0v8.88h-1.092v-8.88h1.092Zm7.736 3.204h-1.38v5.676h-1.092v-5.676h-.852v-.9h.852v-.468c0-.736.188-1.272.564-1.608.384-.344.996-.516 1.836-.516v.912c-.48 0-.82.096-1.02.288-.192.184-.288.492-.288.924v.468h1.38v.9Zm1.837-1.968a.718.718 0 0 1-.528-.216.718.718 0 0 1-.216-.528c0-.208.072-.384.216-.528a.718.718 0 0 1 .528-.216c.2 0 .368.072.504.216.144.144.216.32.216.528a.718.718 0 0 1-.216.528.666.666 0 0 1-.504.216Zm.528 1.068v6.576h-1.092v-6.576h1.092Zm4.573-.108c.568 0 1.064.124 1.488.372.432.248.752.56.96.936v-1.2h1.104v6.72c0 .6-.128 1.132-.384 1.596-.256.472-.624.84-1.104 1.104-.472.264-1.024.396-1.656.396-.864 0-1.584-.204-2.16-.612a2.392 2.392 0 0 1-1.02-1.668h1.08c.12.4.368.72.744.96.376.248.828.372 1.356.372.6 0 1.088-.188 1.464-.564.384-.376.576-.904.576-1.584v-1.38a2.628 2.628 0 0 1-.96.96c-.424.256-.92.384-1.488.384a3.043 3.043 0 0 1-1.596-.432 3.03 3.03 0 0 1-1.116-1.212c-.272-.52-.408-1.112-.408-1.776 0-.672.136-1.26.408-1.764a2.964 2.964 0 0 1 1.116-1.188 3.11 3.11 0 0 1 1.596-.42Zm2.448 3.384c0-.496-.1-.928-.3-1.296a2.065 2.065 0 0 0-.816-.84 2.14 2.14 0 0 0-1.116-.3c-.408 0-.78.096-1.116.288a2.09 2.09 0 0 0-.804.84c-.2.368-.3.8-.3 1.296 0 .504.1.944.3 1.32.2.368.468.652.804.852a2.21 2.21 0 0 0 1.116.288c.408 0 .78-.096 1.116-.288.344-.2.616-.484.816-.852.2-.376.3-.812.3-1.308Zm8.782-3.276v6.576h-1.092v-.972c-.208.336-.5.6-.876.792a2.698 2.698 0 0 1-1.224.276c-.512 0-.972-.104-1.38-.312a2.388 2.388 0 0 1-.972-.96c-.232-.424-.348-.94-.348-1.548v-3.852h1.08v3.708c0 .648.164 1.148.492 1.5.328.344.776.516 1.344.516.584 0 1.044-.18 1.38-.54.336-.36.504-.884.504-1.572v-3.612h1.092Zm2.935 1.068c.192-.376.464-.668.816-.876.36-.208.796-.312 1.308-.312v1.128h-.288c-1.224 0-1.836.664-1.836 1.992v3.576h-1.092v-6.576h1.092v1.068Zm9.385 1.968c0 .208-.012.428-.036.66h-5.256c.04.648.26 1.156.66 1.524.408.36.9.54 1.476.54.472 0 .864-.108 1.176-.324.32-.224.544-.52.672-.888h1.176a2.856 2.856 0 0 1-1.056 1.548c-.528.392-1.184.588-1.968.588-.624 0-1.184-.14-1.68-.42a2.995 2.995 0 0 1-1.152-1.188c-.28-.52-.42-1.12-.42-1.8 0-.68.136-1.276.408-1.788a2.836 2.836 0 0 1 1.14-1.176c.496-.28 1.064-.42 1.704-.42.624 0 1.176.136 1.656.408.48.272.848.648 1.104 1.128.264.472.396 1.008.396 1.608Zm-1.128-.228c0-.416-.092-.772-.276-1.068a1.737 1.737 0 0 0-.756-.684c-.312-.16-.66-.24-1.044-.24-.552 0-1.024.176-1.416.528-.384.352-.604.84-.66 1.464h4.152Zm6.333-3.876a.718.718 0 0 1-.528-.216.718.718 0 0 1-.216-.528c0-.208.072-.384.216-.528a.718.718 0 0 1 .528-.216c.2 0 .368.072.504.216.144.144.216.32.216.528a.718.718 0 0 1-.216.528.666.666 0 0 1-.504.216Zm.528 1.068v6.576h-1.092v-6.576h1.092Zm3.193.9v3.876c0 .32.068.548.204.684.136.128.372.192.708.192h.804v.924h-.984c-.608 0-1.064-.14-1.368-.42-.304-.28-.456-.74-.456-1.38v-3.876h-.852v-.9h.852v-1.656h1.092v1.656h1.716v.9h-1.716Zm9.106 5.784a3.4 3.4 0 0 1-1.68-.42 3.053 3.053 0 0 1-1.176-1.188c-.28-.52-.42-1.12-.42-1.8 0-.672.144-1.264.432-1.776.296-.52.696-.916 1.2-1.188a3.424 3.424 0 0 1 1.692-.42c.624 0 1.188.14 1.692.42.504.272.9.664 1.188 1.176.296.512.444 1.108.444 1.788 0 .68-.152 1.28-.456 1.8a3.09 3.09 0 0 1-1.212 1.188c-.512.28-1.08.42-1.704.42Zm0-.96c.392 0 .76-.092 1.104-.276.344-.184.62-.46.828-.828.216-.368.324-.816.324-1.344 0-.528-.104-.976-.312-1.344a2.003 2.003 0 0 0-.816-.816 2.237 2.237 0 0 0-1.092-.276c-.4 0-.768.092-1.104.276a1.951 1.951 0 0 0-.792.816c-.2.368-.3.816-.3 1.344 0 .536.096.988.288 1.356.2.368.464.644.792.828.328.176.688.264 1.08.264Zm10.64-5.724v6.576h-1.092v-.972c-.208.336-.5.6-.876.792a2.698 2.698 0 0 1-1.224.276c-.512 0-.972-.104-1.38-.312a2.388 2.388 0 0 1-.972-.96c-.232-.424-.348-.94-.348-1.548v-3.852h1.08v3.708c0 .648.164 1.148.492 1.5.328.344.776.516 1.344.516.584 0 1.044-.18 1.38-.54.336-.36.504-.884.504-1.572v-3.612h1.092Zm3.176.9v3.876c0 .32.068.548.204.684.136.128.372.192.708.192h.804v.924h-.984c-.608 0-1.064-.14-1.368-.42-.304-.28-.456-.74-.456-1.38v-3.876h-.852v-.9h.852v-1.656h1.092v1.656h1.716v.9h-1.716Zm4.167 4.164-1.344 3.228h-.732l.876-3.228h1.2Zm5.782-4.164v3.876c0 .32.068.548.204.684.136.128.372.192.708.192h.804v.924h-.984c-.608 0-1.064-.14-1.368-.42-.304-.28-.456-.74-.456-1.38v-3.876h-.852v-.9h.852v-1.656h1.092v1.656h1.716v.9h-1.716Zm5.907 5.784a3.4 3.4 0 0 1-1.68-.42 3.053 3.053 0 0 1-1.176-1.188c-.28-.52-.42-1.12-.42-1.8 0-.672.144-1.264.432-1.776.296-.52.696-.916 1.2-1.188a3.424 3.424 0 0 1 1.692-.42c.624 0 1.188.14 1.692.42.504.272.9.664 1.188 1.176.296.512.444 1.108.444 1.788 0 .68-.152 1.28-.456 1.8a3.09 3.09 0 0 1-1.212 1.188c-.512.28-1.08.42-1.704.42Zm0-.96c.392 0 .76-.092 1.104-.276.344-.184.62-.46.828-.828.216-.368.324-.816.324-1.344 0-.528-.104-.976-.312-1.344a2.003 2.003 0 0 0-.816-.816 2.237 2.237 0 0 0-1.092-.276c-.4 0-.768.092-1.104.276a1.951 1.951 0 0 0-.792.816c-.2.368-.3.816-.3 1.344 0 .536.096.988.288 1.356.2.368.464.644.792.828.328.176.688.264 1.08.264Zm7.52-5.832c.568 0 1.064.124 1.488.372.432.248.752.56.96.936v-1.2h1.104v6.72c0 .6-.128 1.132-.384 1.596-.256.472-.624.84-1.104 1.104-.472.264-1.024.396-1.656.396-.864 0-1.584-.204-2.16-.612a2.392 2.392 0 0 1-1.02-1.668h1.08c.12.4.368.72.744.96.376.248.828.372 1.356.372.6 0 1.088-.188 1.464-.564.384-.376.576-.904.576-1.584v-1.38a2.628 2.628 0 0 1-.96.96c-.424.256-.92.384-1.488.384a3.043 3.043 0 0 1-1.596-.432 3.03 3.03 0 0 1-1.116-1.212c-.272-.52-.408-1.112-.408-1.776 0-.672.136-1.26.408-1.764a2.964 2.964 0 0 1 1.116-1.188 3.11 3.11 0 0 1 1.596-.42Zm2.448 3.384c0-.496-.1-.928-.3-1.296a2.065 2.065 0 0 0-.816-.84 2.14 2.14 0 0 0-1.116-.3c-.408 0-.78.096-1.116.288a2.09 2.09 0 0 0-.804.84c-.2.368-.3.8-.3 1.296 0 .504.1.944.3 1.32.2.368.468.652.804.852a2.21 2.21 0 0 0 1.116.288c.408 0 .78-.096 1.116-.288.344-.2.616-.484.816-.852.2-.376.3-.812.3-1.308Zm8.949-.24c0 .208-.012.428-.036.66h-5.256c.04.648.26 1.156.66 1.524.408.36.9.54 1.476.54.472 0 .864-.108 1.176-.324.32-.224.544-.52.672-.888h1.176a2.856 2.856 0 0 1-1.056 1.548c-.528.392-1.184.588-1.968.588-.624 0-1.184-.14-1.68-.42a2.995 2.995 0 0 1-1.152-1.188c-.28-.52-.42-1.12-.42-1.8 0-.68.136-1.276.408-1.788a2.836 2.836 0 0 1 1.14-1.176c.496-.28 1.064-.42 1.704-.42.624 0 1.176.136 1.656.408.48.272.848.648 1.104 1.128.264.472.396 1.008.396 1.608Zm-1.128-.228c0-.416-.092-.772-.276-1.068a1.737 1.737 0 0 0-.756-.684c-.312-.16-.66-.24-1.044-.24-.552 0-1.024.176-1.416.528-.384.352-.604.84-.66 1.464h4.152Zm3.901-1.908v3.876c0 .32.068.548.204.684.136.128.372.192.708.192h.804v.924h-.984c-.608 0-1.064-.14-1.368-.42-.304-.28-.456-.74-.456-1.38v-3.876h-.852v-.9h.852v-1.656h1.092v1.656h1.716v.9h-1.716Zm6.304-1.02c.496 0 .944.108 1.344.324.4.208.712.524.936.948.232.424.348.94.348 1.548v3.876h-1.08v-3.72c0-.656-.164-1.156-.492-1.5-.328-.352-.776-.528-1.344-.528-.576 0-1.036.18-1.38.54-.336.36-.504.884-.504 1.572v3.636h-1.092v-8.88h1.092v3.24a2.16 2.16 0 0 1 .888-.78 2.933 2.933 0 0 1 1.284-.276Zm10.411 3.156c0 .208-.012.428-.036.66h-5.256c.04.648.26 1.156.66 1.524.408.36.9.54 1.476.54.472 0 .864-.108 1.176-.324.32-.224.544-.52.672-.888h1.176a2.856 2.856 0 0 1-1.056 1.548c-.528.392-1.184.588-1.968.588-.624 0-1.184-.14-1.68-.42a2.995 2.995 0 0 1-1.152-1.188c-.28-.52-.42-1.12-.42-1.8 0-.68.136-1.276.408-1.788a2.836 2.836 0 0 1 1.14-1.176c.496-.28 1.064-.42 1.704-.42.624 0 1.176.136 1.656.408.48.272.848.648 1.104 1.128.264.472.396 1.008.396 1.608Zm-1.128-.228c0-.416-.092-.772-.276-1.068a1.737 1.737 0 0 0-.756-.684c-.312-.16-.66-.24-1.044-.24-.552 0-1.024.176-1.416.528-.384.352-.604.84-.66 1.464h4.152Zm3.662-1.74c.192-.376.464-.668.816-.876.36-.208.796-.312 1.308-.312v1.128h-.288c-1.224 0-1.836.664-1.836 1.992v3.576h-1.092v-6.576h1.092v1.068Zm3.732 5.58a.718.718 0 0 1-.528-.216.718.718 0 0 1-.216-.528c0-.208.072-.384.216-.528a.718.718 0 0 1 .528-.216c.2 0 .368.072.504.216.144.144.216.32.216.528a.718.718 0 0 1-.216.528.666.666 0 0 1-.504.216ZM388.072 171.969v.888h-2.28v7.476H384.7v-7.476h-2.292v-.888h5.664Zm4.212 8.472a3.4 3.4 0 0 1-1.68-.42 3.053 3.053 0 0 1-1.176-1.188c-.28-.52-.42-1.12-.42-1.8 0-.672.144-1.264.432-1.776.296-.52.696-.916 1.2-1.188a3.424 3.424 0 0 1 1.692-.42c.624 0 1.188.14 1.692.42.504.272.9.664 1.188 1.176.296.512.444 1.108.444 1.788 0 .68-.152 1.28-.456 1.8a3.09 3.09 0 0 1-1.212 1.188c-.512.28-1.08.42-1.704.42Zm0-.96c.392 0 .76-.092 1.104-.276.344-.184.62-.46.828-.828.216-.368.324-.816.324-1.344 0-.528-.104-.976-.312-1.344a2.003 2.003 0 0 0-.816-.816 2.237 2.237 0 0 0-1.092-.276c-.4 0-.768.092-1.104.276a1.951 1.951 0 0 0-.792.816c-.2.368-.3.816-.3 1.344 0 .536.096.988.288 1.356.2.368.464.644.792.828.328.176.688.264 1.08.264Zm14.343-5.088a2.563 2.563 0 0 0-1.008-1.128c-.44-.272-.952-.408-1.536-.408-.584 0-1.112.136-1.584.408a2.842 2.842 0 0 0-1.104 1.152c-.264.496-.396 1.072-.396 1.728 0 .656.132 1.232.396 1.728.272.496.64.88 1.104 1.152.472.264 1 .396 1.584.396.816 0 1.488-.244 2.016-.732s.836-1.148.924-1.98h-3.336v-.888h4.5v.84a4.193 4.193 0 0 1-.648 1.896 4.074 4.074 0 0 1-1.452 1.356c-.6.328-1.268.492-2.004.492-.776 0-1.484-.18-2.124-.54a4.097 4.097 0 0 1-1.524-1.524c-.368-.648-.552-1.38-.552-2.196 0-.816.184-1.548.552-2.196a3.984 3.984 0 0 1 1.524-1.524 4.185 4.185 0 0 1 2.124-.552c.888 0 1.672.22 2.352.66.688.44 1.188 1.06 1.5 1.86h-1.308Zm5.872 6.048a3.4 3.4 0 0 1-1.68-.42 3.053 3.053 0 0 1-1.176-1.188c-.28-.52-.42-1.12-.42-1.8 0-.672.144-1.264.432-1.776.296-.52.696-.916 1.2-1.188a3.424 3.424 0 0 1 1.692-.42c.624 0 1.188.14 1.692.42.504.272.9.664 1.188 1.176.296.512.444 1.108.444 1.788 0 .68-.152 1.28-.456 1.8a3.09 3.09 0 0 1-1.212 1.188c-.512.28-1.08.42-1.704.42Zm0-.96c.392 0 .76-.092 1.104-.276.344-.184.62-.46.828-.828.216-.368.324-.816.324-1.344 0-.528-.104-.976-.312-1.344a2.003 2.003 0 0 0-.816-.816 2.237 2.237 0 0 0-1.092-.276c-.4 0-.768.092-1.104.276a1.951 1.951 0 0 0-.792.816c-.2.368-.3.816-.3 1.344 0 .536.096.988.288 1.356.2.368.464.644.792.828.328.176.688.264 1.08.264Zm11.799.936c-.776 0-1.484-.18-2.124-.54a4.097 4.097 0 0 1-1.524-1.524c-.368-.656-.552-1.392-.552-2.208 0-.816.184-1.548.552-2.196a3.984 3.984 0 0 1 1.524-1.524 4.185 4.185 0 0 1 2.124-.552c.784 0 1.496.184 2.136.552.64.36 1.144.864 1.512 1.512.368.648.552 1.384.552 2.208 0 .824-.184 1.56-.552 2.208a4.01 4.01 0 0 1-1.512 1.524c-.64.36-1.352.54-2.136.54Zm0-.948a3.05 3.05 0 0 0 1.572-.408 2.82 2.82 0 0 0 1.104-1.164c.272-.504.408-1.088.408-1.752 0-.672-.136-1.256-.408-1.752a2.844 2.844 0 0 0-1.092-1.164 3.073 3.073 0 0 0-1.584-.408c-.592 0-1.12.136-1.584.408-.464.272-.832.66-1.104 1.164-.264.496-.396 1.08-.396 1.752 0 .664.132 1.248.396 1.752.272.504.64.892 1.104 1.164.472.272 1 .408 1.584.408Zm6.734-4.644c.192-.376.464-.668.816-.876.36-.208.796-.312 1.308-.312v1.128h-.288c-1.224 0-1.836.664-1.836 1.992v3.576h-1.092v-6.576h1.092v1.068Zm2.976 2.196c0-.672.136-1.26.408-1.764a2.964 2.964 0 0 1 1.116-1.188c.48-.28 1.016-.42 1.608-.42.512 0 .988.12 1.428.36.44.232.776.54 1.008.924v-3.48h1.104v8.88h-1.104v-1.236a2.598 2.598 0 0 1-.96.972c-.424.248-.92.372-1.488.372a3.043 3.043 0 0 1-1.596-.432 3.03 3.03 0 0 1-1.116-1.212c-.272-.52-.408-1.112-.408-1.776Zm5.568.012c0-.496-.1-.928-.3-1.296a2.065 2.065 0 0 0-.816-.84 2.14 2.14 0 0 0-1.116-.3c-.408 0-.78.096-1.116.288a2.09 2.09 0 0 0-.804.84c-.2.368-.3.8-.3 1.296 0 .504.1.944.3 1.32.2.368.468.652.804.852a2.21 2.21 0 0 0 1.116.288c.408 0 .78-.096 1.116-.288.344-.2.616-.484.816-.852.2-.376.3-.812.3-1.308Zm8.95-.24c0 .208-.012.428-.036.66h-5.256c.04.648.26 1.156.66 1.524.408.36.9.54 1.476.54.472 0 .864-.108 1.176-.324.32-.224.544-.52.672-.888h1.176a2.856 2.856 0 0 1-1.056 1.548c-.528.392-1.184.588-1.968.588-.624 0-1.184-.14-1.68-.42a2.995 2.995 0 0 1-1.152-1.188c-.28-.52-.42-1.12-.42-1.8 0-.68.136-1.276.408-1.788a2.836 2.836 0 0 1 1.14-1.176c.496-.28 1.064-.42 1.704-.42.624 0 1.176.136 1.656.408.48.272.848.648 1.104 1.128.264.472.396 1.008.396 1.608Zm-1.128-.228c0-.416-.092-.772-.276-1.068a1.737 1.737 0 0 0-.756-.684c-.312-.16-.66-.24-1.044-.24-.552 0-1.024.176-1.416.528-.384.352-.604.84-.66 1.464h4.152Zm3.661-1.74c.192-.376.464-.668.816-.876.36-.208.796-.312 1.308-.312v1.128h-.288c-1.224 0-1.836.664-1.836 1.992v3.576h-1.092v-6.576h1.092v1.068Z"/><path stroke="#1B1D2E" stroke-linecap="round" stroke-linejoin="round" stroke-width=".75" d="M116 206.167h338"/><path fill="#1B1D2E" d="M123.44 250.272a2.508 2.508 0 0 1 1.552.944 2.76 2.76 0 0 1 .608 1.76c0 .597-.149 1.125-.448 1.584-.288.448-.709.8-1.264 1.056s-1.211.384-1.968.384h-4.816v-11.168h4.608c.757 0 1.408.123 1.952.368.555.245.971.587 1.248 1.024.288.437.432.933.432 1.488 0 .651-.176 1.195-.528 1.632-.341.437-.8.747-1.376.928Zm-4.096-.832h2.048c.533 0 .944-.117 1.232-.352.288-.245.432-.592.432-1.04 0-.448-.144-.795-.432-1.04-.288-.245-.699-.368-1.232-.368h-2.048v2.8Zm2.256 4.736c.544 0 .965-.128 1.264-.384.309-.256.464-.619.464-1.088 0-.48-.16-.853-.48-1.12-.32-.277-.752-.416-1.296-.416h-2.208v3.008h2.256Zm5.209-2.64c0-.896.176-1.691.528-2.384.363-.693.848-1.227 1.456-1.6a3.922 3.922 0 0 1 2.064-.56c.662 0 1.238.133 1.728.4.502.267.902.603 1.2 1.008v-1.264h2.256V256h-2.256v-1.296c-.288.416-.688.763-1.2 1.04-.501.267-1.082.4-1.744.4a3.81 3.81 0 0 1-2.048-.576c-.608-.384-1.093-.923-1.456-1.616-.352-.704-.528-1.509-.528-2.416Zm6.976.032c0-.544-.106-1.008-.32-1.392a2.185 2.185 0 0 0-.864-.896 2.266 2.266 0 0 0-1.168-.32c-.416 0-.8.101-1.152.304-.352.203-.64.501-.864.896-.213.384-.32.843-.32 1.376 0 .533.107 1.003.32 1.408.224.395.512.699.864.912.363.213.747.32 1.152.32a2.35 2.35 0 0 0 1.168-.304 2.32 2.32 0 0 0 .864-.896c.214-.395.32-.864.32-1.408Zm7.836 4.576c-.725 0-1.376-.128-1.952-.384-.576-.267-1.035-.624-1.376-1.072a2.725 2.725 0 0 1-.544-1.488h2.256c.043.341.208.624.496.848.299.224.667.336 1.104.336.427 0 .757-.085.992-.256.245-.171.368-.389.368-.656 0-.288-.149-.501-.448-.64-.288-.149-.752-.309-1.392-.48a12.242 12.242 0 0 1-1.632-.496 2.902 2.902 0 0 1-1.088-.784c-.299-.352-.448-.827-.448-1.424 0-.491.139-.939.416-1.344.288-.405.693-.725 1.216-.96.533-.235 1.157-.352 1.872-.352 1.056 0 1.899.267 2.528.8.629.523.976 1.232 1.04 2.128h-2.144a1.124 1.124 0 0 0-.448-.832c-.256-.213-.603-.32-1.04-.32-.405 0-.72.075-.944.224a.72.72 0 0 0-.32.624c0 .299.149.528.448.688.299.149.763.304 1.392.464.64.16 1.168.325 1.584.496.416.171.773.437 1.072.8.309.352.469.821.48 1.408 0 .512-.144.971-.432 1.376-.277.405-.683.725-1.216.96-.523.224-1.136.336-1.84.336Zm13.567-4.768c0 .32-.022.608-.064.864h-6.48c.053.64.277 1.141.672 1.504.394.363.88.544 1.456.544.832 0 1.424-.357 1.776-1.072h2.416a4.083 4.083 0 0 1-1.472 2.112c-.726.544-1.616.816-2.672.816-.854 0-1.622-.187-2.304-.56a4.124 4.124 0 0 1-1.584-1.616c-.374-.693-.56-1.493-.56-2.4 0-.917.186-1.723.56-2.416a3.905 3.905 0 0 1 1.568-1.6c.672-.373 1.445-.56 2.32-.56.842 0 1.594.181 2.256.544.672.363 1.189.88 1.552 1.552.373.661.56 1.424.56 2.288Zm-2.32-.64c-.011-.576-.219-1.035-.624-1.376-.406-.352-.902-.528-1.488-.528-.555 0-1.024.171-1.408.512-.374.331-.603.795-.688 1.392h4.208Zm4.947 5.376c-.406 0-.742-.123-1.008-.368a1.284 1.284 0 0 1-.384-.944c0-.373.128-.683.384-.928.266-.256.602-.384 1.008-.384.394 0 .72.128.976.384.256.245.384.555.384.928s-.128.688-.384.944c-.256.245-.582.368-.976.368Zm0-6.624c-.406 0-.742-.123-1.008-.368a1.284 1.284 0 0 1-.384-.944c0-.373.128-.683.384-.928.266-.256.602-.384 1.008-.384.394 0 .72.128.976.384.256.245.384.555.384.928s-.128.688-.384.944c-.256.245-.582.368-.976.368ZM124.704 284.832v1.808h-2.976V296h-2.24v-9.36h-2.976v-1.808h8.192Zm5.57 11.312c-.853 0-1.621-.187-2.304-.56a4.21 4.21 0 0 1-1.616-1.616c-.384-.693-.576-1.493-.576-2.4 0-.907.198-1.707.592-2.4a4.175 4.175 0 0 1 1.648-1.6c.694-.384 1.467-.576 2.32-.576.854 0 1.627.192 2.32.576a4.053 4.053 0 0 1 1.632 1.6c.406.693.608 1.493.608 2.4 0 .907-.208 1.707-.624 2.4a4.252 4.252 0 0 1-1.664 1.616c-.693.373-1.472.56-2.336.56Zm0-1.952c.406 0 .784-.096 1.136-.288.363-.203.651-.501.864-.896.214-.395.32-.875.32-1.44 0-.843-.224-1.488-.672-1.936a2.143 2.143 0 0 0-1.616-.688c-.64 0-1.178.229-1.616.688-.426.448-.64 1.093-.64 1.936s.208 1.493.624 1.952c.427.448.96.672 1.6.672Zm8.508-5.776c.288-.405.682-.741 1.184-1.008.512-.277 1.093-.416 1.744-.416.757 0 1.44.187 2.048.56.618.373 1.104.907 1.456 1.6.362.683.544 1.477.544 2.384 0 .907-.182 1.712-.544 2.416a3.974 3.974 0 0 1-1.456 1.616 3.756 3.756 0 0 1-2.048.576c-.651 0-1.227-.133-1.728-.4a3.715 3.715 0 0 1-1.2-1.008v5.488h-2.24v-13.088h2.24v1.28Zm4.688 3.12c0-.533-.112-.992-.336-1.376a2.198 2.198 0 0 0-.864-.896 2.265 2.265 0 0 0-1.152-.304c-.406 0-.79.107-1.152.32-.352.203-.64.501-.864.896-.214.395-.32.859-.32 1.392 0 .533.106.997.32 1.392.224.395.512.699.864.912a2.32 2.32 0 0 0 1.152.304c.416 0 .8-.107 1.152-.32.362-.213.65-.517.864-.912.224-.395.336-.864.336-1.408Zm6.155-3.12c.288-.405.683-.741 1.184-1.008.512-.277 1.094-.416 1.744-.416.758 0 1.44.187 2.048.56.619.373 1.104.907 1.456 1.6.363.683.544 1.477.544 2.384 0 .907-.181 1.712-.544 2.416-.352.693-.837 1.232-1.456 1.616a3.754 3.754 0 0 1-2.048.576c-.65 0-1.226-.133-1.728-.4a3.737 3.737 0 0 1-1.2-1.008v5.488h-2.24v-13.088h2.24v1.28Zm4.688 3.12c0-.533-.112-.992-.336-1.376a2.185 2.185 0 0 0-.864-.896 2.265 2.265 0 0 0-1.152-.304c-.405 0-.789.107-1.152.32-.352.203-.64.501-.864.896-.213.395-.32.859-.32 1.392 0 .533.107.997.32 1.392.224.395.512.699.864.912.363.203.747.304 1.152.304.416 0 .8-.107 1.152-.32a2.29 2.29 0 0 0 .864-.912c.224-.395.336-.864.336-1.408Zm5.052-5.456c-.395 0-.725-.123-.992-.368a1.284 1.284 0 0 1-.384-.944c0-.373.128-.683.384-.928.267-.256.597-.384.992-.384s.72.128.976.384c.267.245.4.555.4.928s-.133.688-.4.944c-.256.245-.581.368-.976.368Zm1.104 1.056V296h-2.24v-8.864h2.24Zm7.125-.128c1.056 0 1.909.336 2.56 1.008.651.661.976 1.589.976 2.784v5.2h-2.24v-4.896c0-.704-.176-1.243-.528-1.616-.352-.384-.832-.576-1.44-.576-.619 0-1.109.192-1.472.576-.352.373-.528.912-.528 1.616V296h-2.24v-8.864h2.24v1.104a3.034 3.034 0 0 1 1.136-.896 3.518 3.518 0 0 1 1.536-.336Zm9.138-.016c.662 0 1.243.133 1.744.4a3.14 3.14 0 0 1 1.184 1.008v-1.264h2.256v8.928c0 .821-.165 1.552-.496 2.192a3.61 3.61 0 0 1-1.488 1.536c-.661.384-1.461.576-2.4.576-1.258 0-2.293-.293-3.104-.88-.8-.587-1.253-1.387-1.36-2.4h2.224c.118.405.368.725.752.96.395.245.87.368 1.424.368.651 0 1.179-.197 1.584-.592.406-.384.608-.971.608-1.76v-1.376c-.288.416-.688.763-1.2 1.04-.501.277-1.077.416-1.728.416a3.81 3.81 0 0 1-2.048-.576c-.618-.384-1.109-.923-1.472-1.616-.352-.704-.528-1.509-.528-2.416 0-.896.176-1.691.528-2.384.363-.693.848-1.227 1.456-1.6a3.922 3.922 0 0 1 2.064-.56Zm2.928 4.576c0-.544-.106-1.008-.32-1.392a2.185 2.185 0 0 0-.864-.896 2.266 2.266 0 0 0-1.168-.32c-.416 0-.8.101-1.152.304-.352.203-.64.501-.864.896-.213.384-.32.843-.32 1.376 0 .533.107 1.003.32 1.408.224.395.512.699.864.912.363.213.747.32 1.152.32a2.35 2.35 0 0 0 1.168-.304 2.32 2.32 0 0 0 .864-.896c.214-.395.32-.864.32-1.408Zm7.836 4.576c-.725 0-1.376-.128-1.952-.384-.576-.267-1.035-.624-1.376-1.072a2.725 2.725 0 0 1-.544-1.488h2.256c.043.341.208.624.496.848.299.224.667.336 1.104.336.427 0 .757-.085.992-.256.245-.171.368-.389.368-.656 0-.288-.149-.501-.448-.64-.288-.149-.752-.309-1.392-.48a12.242 12.242 0 0 1-1.632-.496 2.902 2.902 0 0 1-1.088-.784c-.299-.352-.448-.827-.448-1.424 0-.491.139-.939.416-1.344.288-.405.693-.725 1.216-.96.533-.235 1.157-.352 1.872-.352 1.056 0 1.899.267 2.528.8.629.523.976 1.232 1.04 2.128h-2.144a1.124 1.124 0 0 0-.448-.832c-.256-.213-.603-.32-1.04-.32-.405 0-.72.075-.944.224a.72.72 0 0 0-.32.624c0 .299.149.528.448.688.299.149.763.304 1.392.464.64.16 1.168.325 1.584.496.416.171.773.437 1.072.8.309.352.469.821.48 1.408 0 .512-.144.971-.432 1.376-.277.405-.683.725-1.216.96-.523.224-1.136.336-1.84.336Zm6.319-.032c-.406 0-.742-.123-1.008-.368a1.284 1.284 0 0 1-.384-.944c0-.373.128-.683.384-.928.266-.256.602-.384 1.008-.384.394 0 .72.128.976.384.256.245.384.555.384.928s-.128.688-.384.944c-.256.245-.582.368-.976.368Zm0-6.624c-.406 0-.742-.123-1.008-.368a1.284 1.284 0 0 1-.384-.944c0-.373.128-.683.384-.928.266-.256.602-.384 1.008-.384.394 0 .72.128.976.384.256.245.384.555.384.928s-.128.688-.384.944c-.256.245-.582.368-.976.368Z"/><path stroke="#1B1D2E" stroke-linecap="round" stroke-linejoin="round" stroke-width=".75" d="M116 334.833h338"/><path fill="#1B1D2E" d="M122.2 388.807c-.973 0-1.853-.167-2.64-.5-.773-.334-1.387-.814-1.84-1.44-.453-.627-.687-1.367-.7-2.22h3c.04.573.24 1.026.6 1.36.373.333.88.5 1.52.5.653 0 1.167-.154 1.54-.46.373-.32.56-.734.56-1.24 0-.414-.127-.754-.38-1.02a2.527 2.527 0 0 0-.96-.62c-.373-.16-.893-.334-1.56-.52-.907-.267-1.647-.527-2.22-.78a4.115 4.115 0 0 1-1.46-1.18c-.4-.534-.6-1.24-.6-2.12 0-.827.207-1.547.62-2.16.413-.614.993-1.08 1.74-1.4.747-.334 1.6-.5 2.56-.5 1.44 0 2.607.353 3.5 1.06.907.693 1.407 1.666 1.5 2.92h-3.08a1.557 1.557 0 0 0-.62-1.18c-.373-.32-.873-.48-1.5-.48-.547 0-.987.14-1.32.42-.32.28-.48.686-.48 1.22 0 .373.12.686.36.94.253.24.56.44.92.6.373.146.893.32 1.56.52.907.266 1.647.533 2.22.8a3.974 3.974 0 0 1 1.48 1.2c.413.533.62 1.233.62 2.1 0 .746-.193 1.44-.58 2.08-.387.64-.953 1.153-1.7 1.54-.747.373-1.633.56-2.66.56Zm17.828-11.22v11.08h-2.82v-1.4c-.36.48-.834.86-1.42 1.14-.574.266-1.2.4-1.88.4-.867 0-1.634-.18-2.3-.54a4.023 4.023 0 0 1-1.58-1.62c-.374-.72-.56-1.574-.56-2.56v-6.5h2.8v6.1c0 .88.22 1.56.66 2.04.44.466 1.04.7 1.8.7.773 0 1.38-.234 1.82-.7.44-.48.66-1.16.66-2.04v-6.1h2.82Zm5.562 1.62c.36-.534.853-.967 1.48-1.3.64-.334 1.367-.5 2.18-.5.947 0 1.8.233 2.56.7.773.466 1.38 1.133 1.82 2 .453.853.68 1.846.68 2.98 0 1.133-.227 2.14-.68 3.02-.44.866-1.047 1.54-1.82 2.02-.76.48-1.613.72-2.56.72-.827 0-1.553-.16-2.18-.48a4.341 4.341 0 0 1-1.48-1.28v1.58h-2.8v-14.8h2.8v5.34Zm5.86 3.88c0-.667-.14-1.24-.42-1.72a2.735 2.735 0 0 0-1.08-1.12 2.83 2.83 0 0 0-1.44-.38 2.79 2.79 0 0 0-1.44.4c-.44.253-.8.626-1.08 1.12-.267.493-.4 1.073-.4 1.74 0 .666.133 1.246.4 1.74.28.493.64.873 1.08 1.14.453.253.933.38 1.44.38.52 0 1-.134 1.44-.4a2.884 2.884 0 0 0 1.08-1.14c.28-.494.42-1.08.42-1.76Zm8.155-3.2v5.36c0 .373.087.646.26.82.187.16.493.24.92.24h1.3v2.36h-1.76c-2.36 0-3.54-1.147-3.54-3.44v-5.34h-1.32v-2.3h1.32v-2.74h2.82v2.74h2.48v2.3h-2.48Zm9.414 8.96c-1.067 0-2.027-.234-2.88-.7a5.249 5.249 0 0 1-2.02-2.02c-.48-.867-.72-1.867-.72-3 0-1.134.246-2.134.74-3a5.197 5.197 0 0 1 2.06-2c.866-.48 1.833-.72 2.9-.72 1.066 0 2.033.24 2.9.72a5.078 5.078 0 0 1 2.04 2c.506.866.76 1.866.76 3 0 1.133-.26 2.133-.78 3a5.321 5.321 0 0 1-2.08 2.02c-.867.466-1.84.7-2.92.7Zm0-2.44c.506 0 .98-.12 1.42-.36a2.747 2.747 0 0 0 1.08-1.12c.266-.494.4-1.094.4-1.8 0-1.054-.28-1.86-.84-2.42a2.68 2.68 0 0 0-2.02-.86c-.8 0-1.474.286-2.02.86-.534.56-.8 1.366-.8 2.42 0 1.053.26 1.866.78 2.44.533.56 1.2.84 2 .84Zm11.094-6.52v5.36c0 .373.086.646.26.82.186.16.493.24.92.24h1.3v2.36h-1.76c-2.36 0-3.54-1.147-3.54-3.44v-5.34h-1.32v-2.3h1.32v-2.74h2.82v2.74h2.48v2.3h-2.48Zm3.774 3.2c0-1.12.22-2.114.66-2.98.453-.867 1.06-1.534 1.82-2a4.892 4.892 0 0 1 2.58-.7c.826 0 1.546.166 2.16.5.626.333 1.126.753 1.5 1.26v-1.58h2.82v11.08h-2.82v-1.62c-.36.52-.86.953-1.5 1.3-.627.333-1.354.5-2.18.5-.934 0-1.787-.24-2.56-.72-.76-.48-1.367-1.154-1.82-2.02-.44-.88-.66-1.887-.66-3.02Zm8.72.04c0-.68-.134-1.26-.4-1.74a2.735 2.735 0 0 0-1.08-1.12 2.83 2.83 0 0 0-1.46-.4c-.52 0-1 .126-1.44.38-.44.253-.8.626-1.08 1.12-.267.48-.4 1.053-.4 1.72 0 .666.133 1.253.4 1.76.28.493.64.873 1.08 1.14a2.8 2.8 0 0 0 1.44.4 2.95 2.95 0 0 0 1.46-.38c.453-.267.813-.64 1.08-1.12.266-.494.4-1.08.4-1.76Zm8.354-9.26v14.8h-2.8v-14.8h2.8Z"/><defs><filter id="a" width="577.5" height="879" x="0" y="0" color-interpolation-filters="sRGB" filterUnits="userSpaceOnUse"><feFlood flood-opacity="0" result="BackgroundImageFix"/><feColorMatrix in="SourceAlpha" result="hardAlpha" values="0 0 0 0 0 0 0 0 0 0 0 0 0 0 0 0 0 0 127 0"/><feOffset dx="4" dy="4"/><feGaussianBlur stdDeviation="25"/><feComposite in2="hardAlpha" operator="out"/><feColorMatrix values="0 0 0 0 0 0 0 0 0 0 0 0 0 0 0 0 0 0 0.16 0"/><feBlend in2="BackgroundImageFix" result="effect1_dropShadow_1695_5441"/><feBlend in="SourceGraphic" in2="effect1_dropShadow_1695_5441" result="shape"/></filter></defs></svg>