<svg width="58" height="58" viewBox="0 0 58 58" fill="none" xmlns="http://www.w3.org/2000/svg">
<g filter="url(#filter0_d_2384_3411)">
<rect x="8" y="8" width="40" height="40" rx="20" fill="#1B1D2E"/>
<path d="M13.2796 22.6064C11.2042 26.0376 12.2774 31.552 12.2774 31.552C12.6117 40.4974 29.98 51.0995 40 37.5157C32.9738 39.1722 27.6419 40.1661 23.2998 37.1843C13.3034 30.3198 15.2838 19.2932 13.2796 22.6064Z" fill="#616587"/>
<circle cx="29.5" cy="24.5" r="2.5" fill="white"/>
<circle cx="25.5" cy="28.5" r="2.5" fill="white"/>
<path fill-rule="evenodd" clip-rule="evenodd" d="M27.4795 31.7486C28.2517 31.2944 28.7699 30.4548 28.7699 29.4942C28.7699 29.3948 28.7643 29.2966 28.7535 29.2C29.1416 28.9717 29.5939 28.8408 30.0767 28.8408C31.5201 28.8408 32.6903 30.011 32.6903 31.4544C32.6903 32.8978 31.5201 34.068 30.0767 34.068C28.7327 34.068 27.6257 33.0535 27.4795 31.7486Z" fill="white"/>
</g>
<defs>
<filter id="filter0_d_2384_3411" x="0" y="0" width="58" height="58" filterUnits="userSpaceOnUse" color-interpolation-filters="sRGB">
<feFlood flood-opacity="0" result="BackgroundImageFix"/>
<feColorMatrix in="SourceAlpha" type="matrix" values="0 0 0 0 0 0 0 0 0 0 0 0 0 0 0 0 0 0 127 0" result="hardAlpha"/>
<feMorphology radius="1" operator="dilate" in="SourceAlpha" result="effect1_dropShadow_2384_3411"/>
<feOffset dx="1" dy="1"/>
<feGaussianBlur stdDeviation="4"/>
<feComposite in2="hardAlpha" operator="out"/>
<feColorMatrix type="matrix" values="0 0 0 0 0 0 0 0 0 0 0 0 0 0 0 0 0 0 0.04 0"/>
<feBlend mode="normal" in2="BackgroundImageFix" result="effect1_dropShadow_2384_3411"/>
<feBlend mode="normal" in="SourceGraphic" in2="effect1_dropShadow_2384_3411" result="shape"/>
</filter>
</defs>
</svg>
