<svg xmlns="http://www.w3.org/2000/svg" width="48" height="48" fill="none"><path fill="#fff" d="M27.889 39c-.49 0-.938-.053-1.34-.16a5.529 5.529 0 0 1-1.16-.451V9.61c.37-.194.752-.345 1.146-.451.393-.107.826-.16 1.298-.16 1.408 0 2.618.49 3.632 1.472 1.014.982 1.563 2.18 1.646 3.598 1.62.166 3.007.86 4.16 2.083C38.424 17.375 39 18.833 39 20.528a6.47 6.47 0 0 1-.243 1.792 6.472 6.472 0 0 1-.701 1.597c.305.537.539 1.104.701 1.701.162.597.243 1.188.243 1.77 0 1.76-.553 3.24-1.66 4.438-1.106 1.2-2.484 1.882-4.132 2.049-.139 1.352-.71 2.544-1.715 3.576C30.488 38.484 29.287 39 27.889 39Zm-7.778 0c-1.416 0-2.625-.516-3.625-1.549-1-1.032-1.57-2.224-1.708-3.576-1.648-.167-3.023-.87-4.125-2.111C9.55 30.524 9 29.028 9 27.278c0-.602.076-1.188.23-1.757a6.54 6.54 0 0 1 .687-1.632 6.15 6.15 0 0 1-.688-1.584A6.678 6.678 0 0 1 9 20.528c0-1.676.57-3.118 1.708-4.327 1.14-1.208 2.51-1.914 4.111-2.118.065-1.416.612-2.618 1.64-3.604C17.485 9.493 18.712 9 20.138 9c.472 0 .91.056 1.312.167.403.11.79.264 1.16.458v28.764c-.37.194-.757.345-1.16.451-.402.107-.85.16-1.34.16Z"/></svg>