<svg xmlns="http://www.w3.org/2000/svg" width="48" height="48" fill="none"><path fill="#fff" d="M24.541 9.332c-.071.002-.144.008-.215.008-1.4 0-2.62 1.002-3.238 2.476h-2.033v1.168h1.693c-.06.34-.09.683-.09 1.028 0 1.309.438 2.49 1.115 3.34-4.192.65-5.098 6.485-4.101 11.785h1.44l-.063-6.48 1.168-.012.078 7.959.527 8.011H23.7V27.811h1.168v10.804h2.717l.7-9.41.064-6.56 1.168.011-.063 6.48h1.498c.57-2.743.49-5.517-.218-7.687h1.199v-1.168H30.26c-.753-1.521-1.9-2.586-3.436-2.875.708-.854 1.168-2.052 1.168-3.394 0-2.424-1.442-4.432-3.287-4.672a.786.786 0 0 0-.164-.008Zm-11.928.043c-.02 0-.04 0-.06.002-1.778.152-3.03 2.044-3.03 3.906 0 .82.72 1.643 1.424 1.352a5.2 5.2 0 0 1 .856-.264c1.085 1.276 2.17 1.326 3.256.031.24.063.466.141.67.233.696.313 1.898-.531 1.898-1.352 0-1.886-1.233-3.83-3.031-3.906-.766-.033-.823 1.013-.947 1.973-.095-1.074-.412-1.972-1.036-1.975ZM24.39 10.52a1.98 1.98 0 0 1 1.988 1.988 1.98 1.98 0 0 1-1.988 1.988c-.94 0-1.72-.64-1.932-1.512h1.662v-1.168h-1.597a1.98 1.98 0 0 1 1.867-1.296Zm10.605 5.277c-.312.415-.648.87-.86 1.436a2.998 2.998 0 0 0-.105.35l-.012-.01c-.468-.385-.989-.612-1.47-.82l-.461 1.073c.467.2.882.397 1.191.65.047.039.09.079.133.12a1.57 1.57 0 0 0-.043.068c-.928 1.597.99 6.175 2.864 6.12 1.811-.054 3.429-4.603 2.484-6.12a1.633 1.633 0 0 0-.131-.18c.024-.046.049-.093.07-.14.25-.549.335-1.109.408-1.623l-1.156-.164c-.069.483-.147.913-.3 1.265a4.003 4.003 0 0 0-.725-.205c-.905-.021-1.213.537-1.572 1.408.103-.587.064-1.021-.092-1.35l.011-.034c.138-.37.397-.74.7-1.143l-.934-.701Zm-22.207.72v1.167h1.17v-1.167h-1.17Zm13.565 2.278c.931 0 1.704.627 1.923 1.486H26.47v1.168h1.756a1.976 1.976 0 0 1-1.873 1.32 1.978 1.978 0 0 1-1.989-1.986 1.98 1.98 0 0 1 1.989-1.988Zm-13.565.058v1.112h1.17v-1.111h-1.17Zm0 2.28v1.117h1.17v-1.117h-1.17Z"/></svg>