<svg xmlns="http://www.w3.org/2000/svg" width="48" height="48" fill="none"><path fill="#fff" d="M29 40.25a1.2 1.2 0 0 1-.875-.375A1.2 1.2 0 0 1 27.75 39v-1.708a8.4 8.4 0 0 1-2.209-.538 7.875 7.875 0 0 1-1.958-1.129l-1.625 1.625c-.252.23-.55.349-.897.36-.346.01-.644-.11-.894-.362a1.227 1.227 0 0 1-.375-.896c0-.346.125-.644.375-.894l1.666-1.625c-.13-.19-.259-.391-.388-.601-.13-.21-.25-.426-.362-.649L19.792 30l-2.125 2.125a1.38 1.38 0 0 1-.902.36c-.343.01-.64-.11-.89-.36a1.2 1.2 0 0 1-.375-.875 1.2 1.2 0 0 1 .375-.875L18 28.208l-2.583-1.291a25.778 25.778 0 0 0-.563-.313 3.14 3.14 0 0 1-.52-.354l-1.459 1.458c-.252.23-.55.35-.897.36-.346.01-.645-.11-.895-.36a1.2 1.2 0 0 1-.375-.875 1.2 1.2 0 0 1 .375-.875l1.417-1.416a9.622 9.622 0 0 1-1.188-2 7.553 7.553 0 0 1-.604-2.292H9a1.2 1.2 0 0 1-.875-.375 1.223 1.223 0 0 1-.375-.896c0-.347.125-.639.375-.875s.542-.354.875-.354h1.8a9.536 9.536 0 0 1 .596-1.917c.264-.61.59-1.18.979-1.708l-1.417-1.417a1.2 1.2 0 0 1-.375-.875 1.2 1.2 0 0 1 .375-.875 1.2 1.2 0 0 1 .875-.375 1.2 1.2 0 0 1 .875.375l1.417 1.417a8.651 8.651 0 0 1 1.708-.98 9.536 9.536 0 0 1 1.917-.595V9c0-.354.125-.651.375-.89.25-.24.549-.36.896-.36s.639.12.875.36c.236.239.354.536.354.89v1.708c.806.084 1.57.285 2.292.606.722.32 1.403.73 2.041 1.228L26 11.125c.252-.25.55-.375.897-.375s.645.125.895.375.375.542.375.875a1.2 1.2 0 0 1-.375.875l-1.5 1.5c.11.167.22.331.33.494.11.162.207.345.295.548l1.25 2.5 2-2.042c.252-.25.55-.375.897-.375.346 0 .644.126.894.377.25.252.375.55.375.896s-.125.644-.375.894l-2.083 2.041 2.708 1.375.667.417.667.417 1.625-1.625a1.2 1.2 0 0 1 .875-.375c.333 0 .625.125.875.377.25.251.375.55.375.896 0 .345-.125.643-.375.893l-1.625 1.584a8.267 8.267 0 0 1 1.625 4.083H39c.354 0 .651.12.89.36.24.239.36.536.36.89 0 .333-.12.625-.36.875-.239.25-.536.375-.89.375h-1.8a10.471 10.471 0 0 1-.575 1.917 7.93 7.93 0 0 1-.958 1.708L37 35.208c.25.252.375.551.375.898 0 .346-.126.644-.377.894-.252.23-.55.349-.896.36-.346.01-.644-.11-.894-.36l-1.333-1.375a8.651 8.651 0 0 1-1.708.98 9.536 9.536 0 0 1-1.917.595V39c0 .333-.12.625-.36.875-.239.25-.536.375-.89.375Zm-.25-5.417c1.917 0 3.472-.715 4.667-2.145 1.194-1.431 1.639-3.063 1.333-4.896a6.067 6.067 0 0 0-1.102-2.625 6.003 6.003 0 0 0-2.19-1.834l-2.75-1.416A6.105 6.105 0 0 1 27.21 20.8a6.81 6.81 0 0 1-1.127-1.51l-1.416-2.75c-.528-1.055-1.274-1.881-2.237-2.479a5.919 5.919 0 0 0-3.18-.895c-1.917 0-3.472.715-4.667 2.146-1.194 1.43-1.639 3.062-1.333 4.895.163.973.53 1.848 1.102 2.625a6.004 6.004 0 0 0 2.19 1.834l2.75 1.375c.564.299 1.073.68 1.527 1.14.454.462.834.97 1.14 1.526l1.374 2.75c.528 1.056 1.274 1.882 2.237 2.48a5.919 5.919 0 0 0 3.18.895ZM19.833 21.5c.695 0 1.285-.243 1.771-.73a2.41 2.41 0 0 0 .73-1.77 2.41 2.41 0 0 0-.73-1.77 2.411 2.411 0 0 0-1.77-.73c-.695 0-1.285.243-1.771.73a2.411 2.411 0 0 0-.73 1.77c0 .694.243 1.285.73 1.77.486.487 1.076.73 1.77.73Zm8.334 10.417c.583 0 1.076-.202 1.479-.605.403-.402.604-.895.604-1.479 0-.583-.201-1.076-.604-1.479a2.011 2.011 0 0 0-1.48-.604c-.583 0-1.076.201-1.479.604a2.011 2.011 0 0 0-.604 1.48c0 .583.202 1.076.605 1.479.402.402.895.604 1.479.604Z"/></svg>