<svg xmlns="http://www.w3.org/2000/svg" width="48" height="48" fill="none"><path fill="#fff" d="M14.932 18.725h6.277c.32 0 .597-.11.83-.327.231-.218.348-.487.348-.807 0-.348-.117-.632-.349-.85a1.17 1.17 0 0 0-.829-.327h-6.277c-.349 0-.632.11-.85.327-.218.218-.327.502-.327.85 0 .32.109.589.327.807.218.218.501.327.85.327Zm12.207 14.56h6.409c.319 0 .595-.108.828-.327a1.06 1.06 0 0 0 .349-.805c0-.32-.117-.59-.349-.807a1.17 1.17 0 0 0-.828-.327h-6.41c-.348 0-.631.109-.849.327a1.094 1.094 0 0 0-.327.807c0 .32.109.588.327.805.218.219.501.328.85.328Zm0-4.533h6.409c.319 0 .595-.109.828-.327.232-.218.349-.501.349-.85 0-.32-.117-.596-.349-.828a1.134 1.134 0 0 0-.828-.349h-6.41c-.348 0-.631.116-.849.349a1.169 1.169 0 0 0-.327.828c0 .349.109.632.327.85.218.218.501.327.85.327ZM18.07 34.77c.32 0 .596-.11.828-.328.233-.218.349-.5.349-.85V31.02h2.529c.348 0 .632-.11.85-.327.218-.218.327-.487.327-.807 0-.348-.11-.632-.327-.85-.218-.218-.502-.327-.85-.327h-2.53v-2.571c0-.32-.115-.59-.348-.807a1.169 1.169 0 0 0-.828-.328c-.35 0-.632.11-.85.328a1.094 1.094 0 0 0-.328.807v2.571h-2.527c-.35 0-.633.11-.851.327-.218.218-.326.502-.326.85 0 .32.108.589.326.807.218.218.502.327.85.327h2.528v2.572c0 .35.11.632.328.85.218.218.5.328.85.328Zm8.762-13.69c.233.233.51.35.829.35.32 0 .596-.117.829-.35l1.787-1.787 1.787 1.83c.204.204.465.306.785.306s.596-.116.828-.35a1.13 1.13 0 0 0 .349-.827c0-.32-.117-.596-.349-.829l-1.744-1.787 1.788-1.83c.203-.204.305-.459.305-.763 0-.306-.117-.59-.349-.851a1.132 1.132 0 0 0-.828-.349c-.32 0-.596.117-.828.349l-1.744 1.787-1.831-1.831c-.204-.203-.465-.305-.785-.305s-.596.117-.829.349a1.282 1.282 0 0 0-.348.871c0 .32.116.582.348.785l1.789 1.788-1.831 1.787a1.215 1.215 0 0 0-.306.83c0 .319.116.595.348.827ZM11.313 40c-.9 0-1.678-.327-2.332-.981C8.327 38.365 8 37.588 8 36.686V11.314c0-.902.327-1.679.981-2.333C9.635 8.327 10.412 8 11.314 8h25.372c.902 0 1.679.327 2.333.981.654.654.981 1.431.981 2.333v25.372c0 .902-.327 1.679-.981 2.333-.654.654-1.431.981-2.333.981H11.314Z"/></svg>