<svg xmlns="http://www.w3.org/2000/svg" width="48" height="48" fill="none"><path fill="#fff" d="M10.111 39c-.75 0-1.4-.276-1.951-.827-.551-.55-.827-1.2-.827-1.95V16.777c0-.75.276-1.4.827-1.952.55-.55 1.201-.826 1.951-.826h7.223V10.11c0-.75.275-1.4.826-1.951.55-.551 1.201-.827 1.951-.827h7.778c.75 0 1.4.276 1.951.827.551.55.827 1.201.827 1.951V14h7.222c.75 0 1.4.275 1.951.826.551.551.827 1.202.827 1.952v19.444c0 .75-.276 1.4-.827 1.951-.55.551-1.2.827-1.95.827H10.11Zm10-25h7.778V10.11h-7.778V14Z"/></svg>