<svg xmlns="http://www.w3.org/2000/svg" width="48" height="48" fill="none"><path fill="#fff" d="M11.055 39.173c-1.299 0-2.215-.592-2.75-1.775-.533-1.184-.368-2.28.498-3.29l10.348-11.95V10.9h-2.079c-.403 0-.742-.144-1.017-.433a1.456 1.456 0 0 1-.411-1.04c0-.403.137-.742.411-1.017A1.382 1.382 0 0 1 17.072 8h13.856c.403 0 .742.137 1.017.411.274.275.411.614.411 1.018 0 .433-.137.786-.411 1.06a1.382 1.382 0 0 1-1.017.412h-2.079v11.257l10.348 11.95c.866 1.01 1.031 2.106.497 3.29-.534 1.183-1.45 1.775-2.75 1.775H11.056Z"/></svg>