<svg xmlns="http://www.w3.org/2000/svg" width="48" height="48" fill="none"><path fill="#fff" d="M11.406 32.743V14.009c0-.818.297-1.524.891-2.118.594-.594 1.3-.891 2.119-.891h22.535c.422 0 .779.145 1.07.435.29.29.434.647.434 1.07 0 .422-.145.779-.435 1.069-.29.29-.647.435-1.07.435H14.417v18.734h6.811c.608 0 1.123.211 1.545.633.423.423.634.938.634 1.545 0 .58-.211 1.083-.634 1.505a2.101 2.101 0 0 1-1.545.633h-11.01a2.103 2.103 0 0 1-1.544-.633A2.245 2.245 0 0 1 8 34.882c0-.581.211-1.083.633-1.506a2.104 2.104 0 0 1 1.545-.633h1.228Zm16.118 4.316c-.448 0-.83-.158-1.148-.475-.317-.317-.475-.74-.475-1.267V18.129c0-.45.152-.832.455-1.15.304-.316.693-.475 1.168-.475H38.1c.529 0 .977.159 1.347.476.37.317.554.7.554 1.149v17.188c0 .528-.185.95-.554 1.267-.37.317-.819.475-1.347.475H27.525Zm1.15-4.316h8.554V19.277h-8.554v13.466Z"/></svg>