<svg xmlns="http://www.w3.org/2000/svg" width="48" height="48" fill="none"><path fill="#fff" d="M27.278 39.083c-1.435 0-2.646-.497-3.632-1.493-.986-.995-1.48-2.266-1.48-3.812 0-1.204.279-2.296.834-3.278a8.987 8.987 0 0 1 2.174-2.563 11.684 11.684 0 0 1 3-1.763 13.17 13.17 0 0 1 3.312-.882c-.083-1.426-.398-2.447-.944-3.063-.547-.616-1.292-.924-2.237-.924-1 0-1.976.334-2.93 1-.954.667-2.18 1.987-3.68 3.959-1.89 2.416-3.36 4.023-4.41 4.82-1.051.796-2.197 1.194-3.438 1.194-1.268 0-2.393-.442-3.375-1.327C9.491 30.067 9 28.731 9 26.945c0-1.084.317-2.352.951-3.806.635-1.454 1.72-3.366 3.257-5.736.649-.945 1.123-1.732 1.424-2.361.3-.63.451-1.153.451-1.57 0-.268-.067-.479-.201-.632-.134-.152-.336-.229-.604-.229-.213 0-.454.063-.723.188-.268.125-.56.321-.874.59-.362.315-.757.474-1.188.479-.43.005-.803-.16-1.118-.493a1.661 1.661 0 0 1-.514-1.215c0-.468.167-.854.5-1.16.648-.593 1.299-1.032 1.951-1.32a4.846 4.846 0 0 1 1.966-.43c1.213 0 2.21.41 2.993 1.23.782.819 1.173 1.835 1.173 3.048 0 .916-.24 1.859-.722 2.826-.481.968-1.254 2.239-2.32 3.813-1.184 1.74-1.988 3.097-2.409 4.07-.421.971-.632 1.888-.632 2.75 0 .75.178 1.258.535 1.527.356.268.747.403 1.173.403.556 0 1.165-.308 1.827-.924.662-.616 1.775-1.905 3.34-3.868 1.843-2.324 3.463-3.935 4.861-4.833 1.398-.899 2.884-1.348 4.459-1.348 1.935 0 3.432.686 4.493 2.056 1.06 1.37 1.66 3.083 1.798 5.139h2.486c.454 0 .845.164 1.174.493.329.329.493.72.493 1.173 0 .473-.164.873-.493 1.202-.329.329-.72.493-1.174.493h-2.486c-.24 3.685-1.106 6.37-2.597 8.056-1.49 1.685-3.148 2.527-4.972 2.527Zm.11-3.36c.936 0 1.823-.577 2.66-1.73.839-1.153 1.332-2.933 1.48-5.34-1.426.222-2.783.817-4.07 1.785-1.287.967-1.93 2.127-1.93 3.479 0 .555.162.995.486 1.32.324.323.782.485 1.375.485Z"/></svg>