<svg xmlns="http://www.w3.org/2000/svg" width="48" height="48" fill="none"><path fill="#fff" d="M19.39 9.284C20.56 8.484 22.076 8 24 8c1.924 0 3.44.484 4.61 1.284a7.08 7.08 0 0 1 2.42 2.92c.66 1.412.872 2.874.94 3.83 1.294.096 2.62.406 3.71 1.134C37.116 18.126 38 19.708 38 22c0 2.34-.876 3.932-2.328 4.88-1.37.896-3.11 1.12-4.672 1.12H17c-1.58 0-3.314-.258-4.68-1.168C10.884 25.874 10 24.292 10 22s.884-3.874 2.32-4.832c1.09-.728 2.416-1.038 3.712-1.134.066-.956.276-2.418.936-3.832a7.11 7.11 0 0 1 2.42-2.92l.002.002ZM24 34a4 4 0 1 1-8 0 4 4 0 0 1 8 0Zm-10 3a3 3 0 1 1-6 0 3 3 0 0 1 6 0Z"/></svg>