<svg xmlns="http://www.w3.org/2000/svg" width="48" height="48" fill="none"><path fill="#fff" d="m18 34 5.334-3.333L18 27.333V34Zm7.334-15.667h5.333v-2h-5.334v2ZM12 38.667a2.569 2.569 0 0 1-1.884-.784A2.563 2.563 0 0 1 9.334 36V25.333c0-.733.26-1.361.784-1.884A2.563 2.563 0 0 1 12 22.667h16c.733 0 1.361.26 1.884.784.523.522.784 1.15.783 1.882V36c0 .733-.262 1.361-.784 1.884a2.562 2.562 0 0 1-1.883.783H12Zm20.667-12v-1.334c0-.844-.206-1.622-.617-2.333a4.49 4.49 0 0 0-1.65-1.667h.267c1.11 0 2.055-.389 2.833-1.166.778-.778 1.167-1.723 1.167-2.834 0-1.11-.39-2.055-1.167-2.833-.778-.778-1.722-1.167-2.833-1.167H29v2h1.667a1.93 1.93 0 0 1 1.417.584c.39.39.584.862.583 1.416a1.93 1.93 0 0 1-.584 1.418c-.39.389-.861.583-1.416.582H29v1.434a2.97 2.97 0 0 0-.5-.084 6.315 6.315 0 0 0-.5-.016h-1v-1.334h-1.666a1.93 1.93 0 0 1-1.418-.584 1.924 1.924 0 0 1-.582-1.416c0-.555.194-1.028.584-1.417.389-.39.86-.584 1.416-.583H27v-2h-1.666c-1.112 0-2.056.39-2.834 1.167-.778.778-1.166 1.722-1.166 2.833 0 .711.166 1.35.5 1.918.333.567.766 1.039 1.3 1.416h-5.8V12c0-.733.26-1.361.784-1.884A2.563 2.563 0 0 1 20 9.333h16c.733 0 1.361.262 1.884.784.523.523.784 1.15.783 1.883v12c0 .733-.261 1.361-.784 1.884a2.562 2.562 0 0 1-1.883.783h-3.333Z"/></svg>