<svg xmlns="http://www.w3.org/2000/svg" width="48" height="48" fill="none"><g clip-path="url(#a)"><path fill="#5865F2" d="M30.375 12h-12.75A5.625 5.625 0 0 0 12 17.625v12.75A5.625 5.625 0 0 0 17.625 36h12.75A5.625 5.625 0 0 0 36 30.375v-12.75A5.625 5.625 0 0 0 30.375 12Z"/><mask id="b" width="20" height="16" x="14" y="16" maskUnits="userSpaceOnUse" style="mask-type:luminance"><path fill="#fff" d="M14.625 16.781h18.75v14.525h-18.75V16.78Z"/></mask><g mask="url(#b)"><path fill="#fff" d="M30.498 18.075a15.46 15.46 0 0 0-3.817-1.184.058.058 0 0 0-.061.029c-.165.293-.348.675-.475.976a14.272 14.272 0 0 0-4.287 0 9.844 9.844 0 0 0-.483-.976.06.06 0 0 0-.061-.03 15.42 15.42 0 0 0-3.817 1.185.056.056 0 0 0-.025.021c-2.43 3.632-3.096 7.174-2.77 10.672a.063.063 0 0 0 .025.044 15.547 15.547 0 0 0 4.682 2.367.06.06 0 0 0 .066-.021c.36-.493.682-1.012.957-1.559a.06.06 0 0 0-.032-.082 10.24 10.24 0 0 1-1.463-.697.06.06 0 0 1-.024-.077.06.06 0 0 1 .018-.023c.099-.074.196-.15.29-.228a.057.057 0 0 1 .061-.008c3.069 1.401 6.391 1.401 9.423 0a.058.058 0 0 1 .062.008c.095.078.192.154.29.228a.06.06 0 0 1 .025.051.06.06 0 0 1-.03.049 9.621 9.621 0 0 1-1.463.696.059.059 0 0 0-.034.035.06.06 0 0 0 .003.048c.28.542.6 1.063.957 1.558a.06.06 0 0 0 .066.022 15.495 15.495 0 0 0 4.689-2.367.06.06 0 0 0 .024-.043c.391-4.044-.655-7.558-2.772-10.672a.047.047 0 0 0-.024-.022Zm-9.607 8.563c-.924 0-1.685-.848-1.685-1.89 0-1.041.746-1.89 1.685-1.89.946 0 1.7.856 1.685 1.89 0 1.042-.747 1.89-1.685 1.89Zm6.23 0c-.924 0-1.685-.848-1.685-1.89 0-1.041.746-1.89 1.685-1.89.946 0 1.7.856 1.685 1.89 0 1.042-.74 1.89-1.685 1.89Z"/></g></g><defs><clipPath id="a"><path fill="#fff" d="M12 12h24v24H12z"/></clipPath></defs></svg>