<svg xmlns="http://www.w3.org/2000/svg" width="48" height="48" fill="none"><path fill="#fff" d="m22.125 37.333-2.458-2.25c-3.278-3.027-6.153-5.951-8.625-8.771-2.473-2.82-3.709-5.812-3.709-8.979 0-2.527.854-4.645 2.563-6.354 1.708-1.708 3.812-2.562 6.312-2.562 1.445 0 2.848.333 4.209 1 1.36.667 2.555 1.694 3.583 3.083 1.111-1.389 2.32-2.416 3.625-3.083a9.035 9.035 0 0 1 4.167-1c2.5 0 4.604.854 6.312 2.562 1.709 1.709 2.563 3.827 2.563 6.354 0 3.167-1.236 6.167-3.709 9-2.472 2.833-5.36 5.764-8.666 8.792l-2.417 2.208c-.528.5-1.153.75-1.875.75s-1.347-.25-1.875-.75Z"/></svg>