<svg xmlns="http://www.w3.org/2000/svg" width="48" height="48" fill="none"><path fill="#fff" d="M24.036 37.014c-.215 0-.425-.024-.628-.072a1.55 1.55 0 0 1-.556-.251 13.867 13.867 0 0 0-3.211-1.525 11.331 11.331 0 0 0-3.534-.555c-.98 0-1.949.131-2.906.394-.956.263-1.877.634-2.762 1.112-.55.287-1.094.27-1.632-.054-.538-.322-.807-.795-.807-1.417V17.391c0-.336.078-.652.233-.95.155-.3.388-.521.7-.665 1.1-.574 2.254-.998 3.462-1.273a16.482 16.482 0 0 1 3.677-.413c1.41 0 2.78.179 4.107.538 1.328.358 2.601.897 3.821 1.614v18.153c1.22-.789 2.5-1.387 3.838-1.794 1.34-.406 2.692-.61 4.055-.61.86 0 1.77.084 2.726.252a9.652 9.652 0 0 1 2.763.932V15.058c.287.12.574.234.86.341.288.108.563.234.826.377.31.167.544.394.699.681.155.287.233.598.233.934v17.363c0 .598-.263 1.046-.789 1.345-.526.3-1.076.305-1.65.018a13.075 13.075 0 0 0-2.762-1.112 11.172 11.172 0 0 0-6.422.161c-1.124.37-2.189.88-3.193 1.525-.168.12-.347.204-.538.251a2.516 2.516 0 0 1-.61.072Zm3.516-7.139c-.24.191-.49.233-.754.125-.263-.107-.394-.317-.394-.628V17.964c0-.048.06-.203.179-.466l7.247-7.283a.66.66 0 0 1 .753-.16c.287.106.43.316.43.627v12.305c0 .072-.083.24-.25.502l-7.211 6.386Z"/></svg>