<svg xmlns="http://www.w3.org/2000/svg" width="48" height="48" fill="none"><path fill="#fff" d="m11.267 22.1 5.6-5.6a2.67 2.67 0 0 1 1.1-.667 2.574 2.574 0 0 1 1.3-.066l1.733.366c-1.2 1.423-2.145 2.712-2.833 3.867-.69 1.156-1.356 2.556-2 4.2l-4.9-2.1Zm6.833 3.033a20.424 20.424 0 0 1 2.084-4.533 22.027 22.027 0 0 1 3.183-4c1.955-1.956 4.188-3.417 6.7-4.384 2.51-.967 4.855-1.261 7.033-.883.378 2.178.089 4.523-.867 7.034-.955 2.51-2.41 4.744-4.366 6.7a22.403 22.403 0 0 1-4 3.184 20.207 20.207 0 0 1-4.567 2.116l-5.2-5.234Zm9.2-4c.511.512 1.139.767 1.884.767.745 0 1.372-.255 1.883-.767.51-.51.766-1.138.766-1.882s-.255-1.372-.766-1.884c-.512-.511-1.14-.767-1.884-.767-.745 0-1.373.256-1.883.767-.511.51-.767 1.139-.767 1.884 0 .745.256 1.372.767 1.882Zm-.933 16.034-2.134-4.9c1.645-.645 3.05-1.311 4.218-2 1.167-.69 2.46-1.634 3.882-2.834l.334 1.734c.088.444.066.883-.067 1.317a2.65 2.65 0 0 1-.667 1.116l-5.566 5.567ZM13.4 29.4c.778-.778 1.722-1.172 2.833-1.184 1.111-.012 2.056.372 2.834 1.15.777.779 1.166 1.723 1.166 2.834s-.389 2.056-1.166 2.833c-.556.556-1.483 1.034-2.783 1.434-1.3.4-3.094.755-5.384 1.066.311-2.288.667-4.077 1.067-5.366.4-1.29.877-2.211 1.433-2.767Z"/></svg>