<svg xmlns="http://www.w3.org/2000/svg" width="48" height="48" fill="none"><path fill="#fff" d="M26.158 38.526c-.566 0-.978-.184-1.236-.553-.259-.37-.29-.837-.092-1.404l5.388-14.356c.147-.394.424-.726.83-.997.406-.27.818-.405 1.236-.405.419 0 .831.135 1.237.405.406.271.683.603.83.997l5.5 14.283c.22.566.196 1.045-.074 1.44-.271.393-.726.59-1.366.59a1.25 1.25 0 0 1-.756-.258 1.409 1.409 0 0 1-.499-.665l-1.218-3.69h-7.122L27.45 37.64c-.099.246-.271.455-.517.628a1.33 1.33 0 0 1-.775.258Zm3.506-7.197h5.241l-2.584-7.197h-.073l-2.584 7.197ZM17.153 18.67c.369.665.775 1.299 1.218 1.902.443.603.935 1.224 1.476 1.863 1.107-1.156 2.024-2.355 2.75-3.598a25.638 25.638 0 0 0 1.863-3.93H9.476c-.418 0-.769-.142-1.052-.425A1.429 1.429 0 0 1 8 13.43c0-.418.141-.769.424-1.052a1.428 1.428 0 0 1 1.052-.424h8.857v-1.476c0-.418.142-.769.425-1.052A1.43 1.43 0 0 1 19.81 9c.418 0 .769.142 1.052.425.283.283.425.633.425 1.052v1.476h8.857c.418 0 .769.142 1.052.424.282.283.424.634.424 1.052 0 .418-.142.77-.424 1.052a1.428 1.428 0 0 1-1.052.424h-2.731a28.508 28.508 0 0 1-2.14 5.039 25.098 25.098 0 0 1-3.286 4.668l3.58 3.617-1.107 3.026-4.65-4.54-6.385 6.386c-.27.27-.603.406-.996.406-.394 0-.726-.148-.997-.443a1.32 1.32 0 0 1-.443-1.015c0-.406.148-.744.443-1.015l6.458-6.496a43.81 43.81 0 0 1-1.807-2.306 26.114 26.114 0 0 1-1.55-2.381c-.296-.541-.32-1.009-.075-1.402.246-.394.69-.591 1.329-.591.27 0 .535.08.793.24.26.16.45.35.573.572Z"/></svg>