<svg xmlns="http://www.w3.org/2000/svg" width="48" height="48" fill="none"><path fill="#fff" d="M20.833 39a1 1 0 0 1-1-1v-3.278a1 1 0 0 0-1-1h-10.5a1 1 0 0 1-1-1v-.777a1 1 0 0 1 1-1h11.5c.764 0 1.418.271 1.962.815.544.544.816 1.198.816 1.962V38a1 1 0 0 1-1 1h-.778Zm5.556 0a1 1 0 0 1-1-1v-4.278c0-.764.271-1.418.816-1.962a2.675 2.675 0 0 1 1.961-.816h11.5a1 1 0 0 1 1 1v.778a1 1 0 0 1-1 1h-10.5a1 1 0 0 0-1 1V38a1 1 0 0 1-1 1h-.777ZM13.722 28.722c-1.296 0-2.407-.463-3.333-1.389-.926-.926-1.39-2.037-1.39-3.333v-6.222a1 1 0 0 1 1-1h28a1 1 0 0 1 1 1V24c0 1.296-.458 2.407-1.377 3.333-.918.926-2.033 1.39-3.344 1.39H13.722ZM10 15.112a1 1 0 0 1-1-1v-.779a1 1 0 0 1 1-1h8.277a1 1 0 0 0 1-1v-.944c0-.394.134-.723.4-.99.266-.266.596-.399.99-.399h6.666c.394 0 .723.133.99.4.266.266.399.595.399.989v.944a1 1 0 0 0 1 1H38a1 1 0 0 1 1 1v.778a1 1 0 0 1-1 1H10Z"/></svg>