<svg xmlns="http://www.w3.org/2000/svg" width="48" height="48" fill="none"><g clip-path="url(#a)"><path fill="url(#b)" d="M30.375 12h-12.75A5.625 5.625 0 0 0 12 17.625v12.75A5.625 5.625 0 0 0 17.625 36h12.75A5.625 5.625 0 0 0 36 30.375v-12.75A5.625 5.625 0 0 0 30.375 12Z"/><path fill="url(#c)" d="M30.375 12h-12.75A5.625 5.625 0 0 0 12 17.625v12.75A5.625 5.625 0 0 0 17.625 36h12.75A5.625 5.625 0 0 0 36 30.375v-12.75A5.625 5.625 0 0 0 30.375 12Z"/><path fill="#fff" d="M24 14.625c-2.545 0-2.865.011-3.865.057-.998.045-1.68.203-2.275.435a4.59 4.59 0 0 0-1.66 1.081 4.602 4.602 0 0 0-1.083 1.66c-.233.597-.39 1.279-.436 2.276-.044 1-.056 1.32-.056 3.866 0 2.546.011 2.865.057 3.865.046.998.204 1.68.435 2.275.24.617.56 1.14 1.081 1.66a4.59 4.59 0 0 0 1.66 1.083c.597.232 1.279.39 2.276.436 1 .045 1.32.056 3.866.056 2.546 0 2.865-.011 3.865-.056.998-.046 1.68-.204 2.276-.436a4.584 4.584 0 0 0 1.66-1.082 4.6 4.6 0 0 0 1.082-1.66c.23-.597.389-1.278.435-2.276.045-1 .057-1.319.057-3.865 0-2.546-.012-2.866-.057-3.866-.046-.998-.205-1.679-.435-2.275A4.601 4.601 0 0 0 31.8 16.2a4.58 4.58 0 0 0-1.66-1.082c-.598-.232-1.28-.39-2.278-.435-1-.046-1.318-.057-3.865-.057H24Zm-.84 1.69H24c2.504 0 2.8.008 3.79.053.913.042 1.41.195 1.74.323.437.17.75.373 1.077.701.328.329.531.641.702 1.079.128.33.281.826.323 1.74.044.988.054 1.285.054 3.787s-.01 2.799-.054 3.787c-.042.914-.195 1.41-.323 1.74-.17.438-.374.75-.702 1.077-.328.328-.64.532-1.077.701-.33.13-.827.282-1.74.324-.99.045-1.286.054-3.79.054-2.503 0-2.8-.01-3.787-.054-.915-.043-1.41-.195-1.741-.324a2.906 2.906 0 0 1-1.079-.7 2.907 2.907 0 0 1-.701-1.078c-.128-.33-.281-.827-.323-1.74-.045-.989-.054-1.286-.054-3.79 0-2.503.01-2.798.054-3.787.042-.914.195-1.41.323-1.74.17-.438.373-.75.702-1.078.328-.328.64-.532 1.078-.702.33-.129.826-.281 1.74-.323.865-.04 1.2-.05 2.948-.053v.002Zm5.845 1.556a1.125 1.125 0 1 0 0 2.25 1.125 1.125 0 0 0 0-2.25Zm-5.004 1.315a4.815 4.815 0 1 0 0 9.629 4.815 4.815 0 0 0 0-9.63Zm0 1.689a3.125 3.125 0 1 1 0 6.25 3.125 3.125 0 0 1 0-6.25Z"/></g><defs><radialGradient id="b" cx="0" cy="0" r="1" gradientTransform="matrix(0 -23.7858 22.1227 0 18.375 37.849)" gradientUnits="userSpaceOnUse"><stop stop-color="#FD5"/><stop offset=".1" stop-color="#FD5"/><stop offset=".5" stop-color="#FF543E"/><stop offset="1" stop-color="#C837AB"/></radialGradient><radialGradient id="c" cx="0" cy="0" r="1" gradientTransform="rotate(78.681 -4.385 11.732) scale(10.6324 43.827)" gradientUnits="userSpaceOnUse"><stop stop-color="#3771C8"/><stop offset=".128" stop-color="#3771C8"/><stop offset="1" stop-color="#60F" stop-opacity="0"/></radialGradient><clipPath id="a"><path fill="#fff" d="M12 12h24v24H12z"/></clipPath></defs></svg>