<svg xmlns="http://www.w3.org/2000/svg" width="48" height="48" fill="none"><path fill="#fff" d="M25.594 8.594v2.656h2.093c.646 0 1.281.17 1.842.49l2.741 1.565c.081.047.17.07.264.07h4.747a1.594 1.594 0 0 1 0 3.188h-.907l4.486 9.97a1.595 1.595 0 0 1-.328 1.78l-1.126-1.125 1.124 1.128-.002.004-.004.004-.013.013-.013.01-.02.022-.097.085a7.527 7.527 0 0 1-1.457.956c-.993.497-2.43.965-4.3.965a9.558 9.558 0 0 1-4.298-.965 7.527 7.527 0 0 1-1.458-.956l-.095-.085-.034-.032-.013-.013-.009-.008v-.002a1.593 1.593 0 0 1-.327-1.781l4.488-9.97h-.344a3.693 3.693 0 0 1-1.845-.491l-2.74-1.564a.522.522 0 0 0-.264-.07h-2.091v20.187h5.312a1.594 1.594 0 0 1 0 3.188H17.094a1.594 1.594 0 1 1 0-3.188h5.312V14.437h-2.09a.521.521 0 0 0-.264.07l-2.74 1.567a3.748 3.748 0 0 1-1.846.488h-.344l4.488 9.971a1.595 1.595 0 0 1-.328 1.78l-1.126-1.125 1.124 1.128-.002.004-.004.004-.013.013-.034.032-.096.085a7.527 7.527 0 0 1-1.457.956c-.993.497-2.43.965-4.3.965a9.557 9.557 0 0 1-4.298-.965 7.53 7.53 0 0 1-1.458-.956l-.095-.085-.034-.032-.013-.013-.009-.008v-.002a1.593 1.593 0 0 1-.327-1.781l4.488-9.97h-.91a1.594 1.594 0 1 1 0-3.188h4.748a.53.53 0 0 0 .265-.07l2.737-1.566a3.75 3.75 0 0 1 1.847-.489h2.091V8.594a1.594 1.594 0 0 1 3.188 0Zm6.258 18.013c.605.287 1.525.58 2.773.58 1.247 0 2.167-.293 2.773-.58l-2.773-6.162-2.773 6.162Zm-21.25 0c.605.287 1.525.58 2.773.58 1.247 0 2.167-.293 2.773-.58l-2.773-6.162-2.773 6.162Z"/></svg>