<svg xmlns="http://www.w3.org/2000/svg" width="48" height="48" fill="none"><g clip-path="url(#a)"><rect width="24" height="24" x="12" y="12" fill="#fff" rx="2"/><path fill="#0A66C2" d="M32.45 32.45h-3.557v-5.57c0-1.328-.024-3.037-1.85-3.037-1.851 0-2.135 1.447-2.135 2.94v5.666h-3.556V20.997h3.414v1.565h.048a3.741 3.741 0 0 1 3.368-1.85c3.604 0 4.269 2.37 4.269 5.455l-.002 6.282ZM17.34 19.43a2.064 2.064 0 1 1-.001-4.127 2.064 2.064 0 0 1 0 4.127Zm1.778 13.018h-3.56V20.997h3.56v11.452Zm15.104-20.447H13.77A1.751 1.751 0 0 0 12 13.732v20.536A1.753 1.753 0 0 0 13.77 36h20.452A1.756 1.756 0 0 0 36 34.268V13.73A1.755 1.755 0 0 0 34.222 12"/></g><defs><clipPath id="a"><rect width="24" height="24" x="12" y="12" fill="#fff" rx="2"/></clipPath></defs></svg>