<svg width="48" height="48" viewBox="0 0 48 48" fill="none" xmlns="http://www.w3.org/2000/svg">
<path d="M14.9317 18.7246H21.2095C21.5297 18.7246 21.8059 18.6157 22.0382 18.3981C22.2705 18.1798 22.3866 17.9109 22.3866 17.5914C22.3866 17.2427 22.2705 16.9591 22.0382 16.7408C21.8059 16.5231 21.5297 16.4143 21.2095 16.4143H14.9317C14.583 16.4143 14.2998 16.5231 14.0821 16.7408C13.8638 16.9591 13.7546 17.2427 13.7546 17.5914C13.7546 17.9109 13.8638 18.1798 14.0821 18.3981C14.2998 18.6157 14.583 18.7246 14.9317 18.7246ZM27.1389 33.2859H33.5475C33.8669 33.2859 34.1432 33.1767 34.3761 32.9584C34.6084 32.7408 34.7246 32.4722 34.7246 32.1528C34.7246 31.8326 34.6084 31.5637 34.3761 31.3461C34.1432 31.1277 33.8669 31.0186 33.5475 31.0186H27.1389C26.7901 31.0186 26.5069 31.1277 26.2893 31.3461C26.071 31.5637 25.9618 31.8326 25.9618 32.1528C25.9618 32.4722 26.071 32.7408 26.2893 32.9584C26.5069 33.1767 26.7901 33.2859 27.1389 33.2859ZM27.1389 28.7523H33.5475C33.8669 28.7523 34.1432 28.6431 34.3761 28.4248C34.6084 28.2072 34.7246 27.924 34.7246 27.5752C34.7246 27.255 34.6084 26.9788 34.3761 26.7465C34.1432 26.5143 33.8669 26.3981 33.5475 26.3981H27.1389C26.7901 26.3981 26.5069 26.5143 26.2893 26.7465C26.071 26.9788 25.9618 27.255 25.9618 27.5752C25.9618 27.924 26.071 28.2072 26.2893 28.4248C26.5069 28.6431 26.7901 28.7523 27.1389 28.7523ZM18.0706 34.7685C18.3908 34.7685 18.667 34.6593 18.8993 34.441C19.1316 34.2234 19.2477 33.9402 19.2477 33.5914V31.0186H21.7766C22.1254 31.0186 22.4089 30.9098 22.6273 30.6921C22.8449 30.4738 22.9537 30.2049 22.9537 29.8854C22.9537 29.5367 22.8449 29.2531 22.6273 29.0348C22.4089 28.8172 22.1254 28.7083 21.7766 28.7083H19.2477V26.1365C19.2477 25.8164 19.1316 25.5475 18.8993 25.3298C18.667 25.1115 18.3908 25.0024 18.0706 25.0024C17.7219 25.0024 17.4387 25.1115 17.221 25.3298C17.0027 25.5475 16.8935 25.8164 16.8935 26.1365V28.7083H14.3657C14.0169 28.7083 13.7334 28.8172 13.515 29.0348C13.2974 29.2531 13.1886 29.5367 13.1886 29.8854C13.1886 30.2049 13.2974 30.4738 13.515 30.6921C13.7334 30.9098 14.0169 31.0186 14.3657 31.0186H16.8935V33.5914C16.8935 33.9402 17.0027 34.2234 17.221 34.441C17.4387 34.6593 17.7219 34.7685 18.0706 34.7685ZM26.8334 21.0787C27.0664 21.3117 27.3426 21.4282 27.662 21.4282C27.9815 21.4282 28.2577 21.3117 28.4907 21.0787L30.2778 19.2917L32.0649 21.1227C32.2686 21.3264 32.5301 21.4282 32.8496 21.4282C33.1698 21.4282 33.446 21.3117 33.6783 21.0787C33.9105 20.8465 34.0267 20.5706 34.0267 20.2511C34.0267 19.9309 33.9105 19.6547 33.6783 19.4224L31.9341 17.6354L33.7222 15.8043C33.9252 15.6007 34.0267 15.3464 34.0267 15.0416C34.0267 14.7361 33.9105 14.4525 33.6783 14.1909C33.446 13.9587 33.1698 13.8425 32.8496 13.8425C32.5301 13.8425 32.2543 13.9587 32.022 14.1909L30.2778 15.978L28.4468 14.147C28.2431 13.944 27.9815 13.8425 27.662 13.8425C27.3426 13.8425 27.0664 13.9587 26.8334 14.1909C26.6011 14.4525 26.485 14.743 26.485 15.0625C26.485 15.3827 26.6011 15.6443 26.8334 15.8472L28.6215 17.6354L26.7905 19.4224C26.5868 19.6547 26.485 19.9309 26.485 20.2511C26.485 20.5706 26.6011 20.8465 26.8334 21.0787ZM11.3136 40C10.4124 40 9.63502 39.6729 8.98143 39.0186C8.32714 38.365 8 37.5876 8 36.6864V11.3136C8 10.4124 8.32714 9.63502 8.98143 8.98143C9.63502 8.32714 10.4124 8 11.3136 8H36.6864C37.5876 8 38.365 8.32714 39.0186 8.98143C39.6729 9.63502 40 10.4124 40 11.3136V36.6864C40 37.5876 39.6729 38.365 39.0186 39.0186C38.365 39.6729 37.5876 40 36.6864 40H11.3136Z" fill="white"/>
</svg>
