<svg xmlns="http://www.w3.org/2000/svg" width="48" height="48" fill="none"><path fill="#fff" d="M32.639 40.667c-2.221 0-4.114-.783-5.68-2.348-1.565-1.566-2.348-3.459-2.348-5.68 0-2.221.783-4.114 2.348-5.68 1.566-1.565 3.459-2.348 5.68-2.348 2.22 0 4.114.783 5.68 2.348 1.565 1.566 2.348 3.459 2.348 5.68 0 2.221-.783 4.114-2.349 5.68-1.565 1.565-3.458 2.348-5.68 2.348Zm1.958-4.486a.8.8 0 0 0 .584.25.8.8 0 0 0 .583-.25.804.804 0 0 0 .25-.586.804.804 0 0 0-.25-.585l-2.542-2.55v-3.848a.768.768 0 0 0-.242-.57.8.8 0 0 0-1.147.014.8.8 0 0 0-.25.583v3.875c0 .177.033.349.098.515a1.6 1.6 0 0 0 .291.471l2.625 2.68Zm-22.82 2.43a2.675 2.675 0 0 1-1.961-.816A2.675 2.675 0 0 1 9 35.833V11.89c0-.764.252-1.418.757-1.962s1.011-.816 1.52-.816h7.931c.232-.972.75-1.77 1.556-2.396a4.347 4.347 0 0 1 2.736-.937c1.037 0 1.956.312 2.757.937a4.194 4.194 0 0 1 1.548 2.396h7.917c.764 0 1.418.272 1.962.816.544.544.816 1.198.816 1.962v11.667a10.077 10.077 0 0 0-1.348-.736c-.454-.203-.93-.384-1.43-.542v-10.39h-4.055v2.501c0 .764-.272 1.418-.816 1.962a2.675 2.675 0 0 1-1.962.816H18.61a2.675 2.675 0 0 1-1.962-.816 2.675 2.675 0 0 1-.816-1.962v-2.5h-4.055v23.944h10.528c.157.482.342.95.555 1.403.213.454.472.912.778 1.375H11.778ZM24 11.778c.472 0 .868-.16 1.188-.48.319-.319.479-.715.479-1.187 0-.472-.16-.868-.48-1.187-.319-.32-.715-.48-1.187-.48-.472 0-.868.16-1.188.48-.319.32-.479.715-.479 1.187 0 .472.16.868.48 1.188.319.32.715.479 1.187.479Z"/></svg>