<svg xmlns="http://www.w3.org/2000/svg" width="48" height="48" fill="none"><path fill="#fff" d="M27.333 9.5c0 1.383-1.116 2.5-2.5 2.5a2.497 2.497 0 0 1-2.5-2.5c0-1.383 1.117-2.5 2.5-2.5 1.384 0 2.5 1.117 2.5 2.5ZM18.167 12a2.497 2.497 0 0 0-2.5 2.5c0 1.383 1.116 2.5 2.5 2.5 1.383 0 2.5-1.117 2.5-2.5s-1.117-2.5-2.5-2.5Zm9.166 11.667-.84-2.423a1 1 0 0 1 .945-1.327h3.293a1 1 0 0 0 .447-.106l3.389-1.694c.616-.284.866-1.05.55-1.667a1.228 1.228 0 0 0-1.667-.567l-.528.264a1 1 0 0 1-1.311-.39l-.344-.59c-.484-1.084-1.667-1.7-2.834-1.434l-4.116.884c-1.15.25-1.984 1.3-1.984 2.5v.631a1 1 0 0 1-.445.832l-3.597 2.398c-.002.002-.001.005.002.005.002 0 .003.003.001.005-.132.116-.312.265-.41.462l-1.335 2.653a1 1 0 0 1-.446.445l-2.67 1.335c-.616.284-.866 1.067-.55 1.684a1.255 1.255 0 0 0 1.684.55l3.403-1.702a1 1 0 0 0 .446-.444l.938-1.858a1 1 0 0 1 1.624-.232l.95 1.018c.25.268.34.652.186.984-1.733 3.747-8.418 8.226-11.518 10.156-.679.422-.627 1.408.117 1.7 2.5.982 7.49 2.594 13.287 2.594 6.024 0 11.177-1.741 13.57-2.707.677-.273.79-1.151.239-1.63-2.425-2.106-7.92-7.218-10.476-12.33Zm4.75-1.517-.322.161a1 1 0 0 1-.447.106h-1.48a.197.197 0 0 0-.184.266c.396.784.875 1.579 1.41 2.36.566.824 1.735.3 1.582-.688l-.324-2.084a.163.163 0 0 0-.235-.121Z"/></svg>