<svg width="48" height="48" viewBox="0 0 48 48" fill="none" xmlns="http://www.w3.org/2000/svg">
<path d="M19.39 9.284C20.56 8.484 22.076 8 24 8C25.924 8 27.44 8.484 28.61 9.284C29.6672 10.0192 30.5039 11.0287 31.03 12.204C31.69 13.616 31.902 15.078 31.97 16.034C33.264 16.13 34.59 16.44 35.68 17.168C37.116 18.126 38 19.708 38 22C38 24.34 37.124 25.932 35.672 26.88C34.302 27.776 32.562 28 31 28H17C15.42 28 13.686 27.742 12.32 26.832C10.884 25.874 10 24.292 10 22C10 19.708 10.884 18.126 12.32 17.168C13.41 16.44 14.736 16.13 16.032 16.034C16.098 15.078 16.308 13.616 16.968 12.202C17.4954 11.0275 18.3318 10.0183 19.388 9.282L19.39 9.284ZM24 34C24 35.0609 23.5786 36.0783 22.8284 36.8284C22.0783 37.5786 21.0609 38 20 38C18.9391 38 17.9217 37.5786 17.1716 36.8284C16.4214 36.0783 16 35.0609 16 34C16 32.9391 16.4214 31.9217 17.1716 31.1716C17.9217 30.4214 18.9391 30 20 30C21.0609 30 22.0783 30.4214 22.8284 31.1716C23.5786 31.9217 24 32.9391 24 34ZM14 37C14 37.394 13.9224 37.7841 13.7716 38.1481C13.6209 38.512 13.3999 38.8427 13.1213 39.1213C12.8427 39.3999 12.512 39.6209 12.1481 39.7716C11.7841 39.9224 11.394 40 11 40C10.606 40 10.2159 39.9224 9.85195 39.7716C9.48797 39.6209 9.15726 39.3999 8.87868 39.1213C8.6001 38.8427 8.37913 38.512 8.22836 38.1481C8.0776 37.7841 8 37.394 8 37C8 36.2044 8.31607 35.4413 8.87868 34.8787C9.44129 34.3161 10.2044 34 11 34C11.7956 34 12.5587 34.3161 13.1213 34.8787C13.6839 35.4413 14 36.2044 14 37Z" fill="white"/>
</svg>
