<svg xmlns="http://www.w3.org/2000/svg" width="48" height="48" fill="none"><path fill="#fff" d="M25.731 39.541a1.343 1.343 0 0 1-.417-.98c0-.376.139-.703.417-.981l4.965-4.965-15.353-15.353-4.965 4.965a1.27 1.27 0 0 1-.98.396 1.422 1.422 0 0 1-.981-.438A1.365 1.365 0 0 1 8 21.183c0-.389.139-.723.417-1.001l1.376-1.335-1.376-1.377A1.343 1.343 0 0 1 8 16.49c0-.376.139-.702.417-.98l2.587-2.546-1.001-1a1.295 1.295 0 0 1-.397-1.002c.014-.39.16-.723.438-1.001a1.366 1.366 0 0 1 1.001-.418c.39 0 .724.14 1.001.418l.96 1 2.504-2.544c.278-.278.604-.417.98-.417.375 0 .702.139.98.417l1.42 1.418 1.376-1.418c.278-.25.605-.376.98-.376.376 0 .702.125.98.376.279.278.418.605.418.98 0 .376-.139.703-.417.981l-4.965 4.965 15.353 15.353 4.965-4.965a1.366 1.366 0 0 1 1.001-.417c.39 0 .724.139 1.002.417.278.279.417.612.417 1.002 0 .389-.14.723-.417 1l-1.418 1.378 1.376 1.377c.278.278.417.605.417.98 0 .376-.139.702-.417.98l-2.628 2.587 1.001 1.002c.278.278.417.597.417.96 0 .36-.139.68-.417.958a1.342 1.342 0 0 1-.98.418c-.376 0-.703-.14-.981-.418l-1.002-.959-2.503 2.545a1.341 1.341 0 0 1-.98.417c-.375 0-.702-.139-.98-.417l-1.42-1.418-1.376 1.418c-.278.25-.605.376-.98.376-.376 0-.702-.125-.98-.376Z"/></svg>