<svg xmlns="http://www.w3.org/2000/svg" width="48" height="48" fill="none"><path fill="#fff" d="M24.2 40c-2.213 0-4.1-.78-5.66-2.34-1.56-1.56-2.34-3.447-2.34-5.66V17.6c-.88 0-1.633-.314-2.26-.94A3.081 3.081 0 0 1 13 14.4v-3.2c0-.88.313-1.633.94-2.26A3.083 3.083 0 0 1 16.2 8h16c.88 0 1.633.314 2.26.94.627.627.94 1.38.94 2.26v3.2c0 .88-.313 1.633-.94 2.26-.627.627-1.38.94-2.26.94V32c0 2.213-.78 4.1-2.34 5.66C28.3 39.22 26.413 40 24.2 40Zm0-2.68c1.253 0 2.353-.374 3.3-1.12a5.163 5.163 0 0 0 1.86-2.88h-3.84c-.373 0-.686-.127-.94-.38a1.275 1.275 0 0 1-.38-.94c0-.374.127-.687.38-.94.254-.254.567-.38.94-.38h4v-2.16h-4c-.373 0-.686-.127-.94-.38a1.275 1.275 0 0 1-.38-.94c0-.373.127-.687.38-.94.254-.254.567-.38.94-.38h4v-2.16h-4c-.373 0-.686-.127-.94-.38a1.275 1.275 0 0 1-.38-.94c0-.373.127-.687.38-.94.254-.254.567-.38.94-.38h4V17.6H18.88V32c0 1.493.513 2.753 1.54 3.78 1.027 1.026 2.287 1.54 3.78 1.54Z"/></svg>