<svg xmlns="http://www.w3.org/2000/svg" width="48" height="48" fill="none"><path fill="#fff" d="M24 39.688c-.415 0-.763-.14-1.044-.422a1.416 1.416 0 0 1-.423-1.044v-12.4h-.622c-1.896 0-3.689-.363-5.378-1.088A14.42 14.42 0 0 1 12 21.644a13.627 13.627 0 0 1-2.978-4.622A14.923 14.923 0 0 1 8 11.555V9.467c0-.415.14-.763.422-1.045.282-.281.63-.422 1.045-.422h2.044c1.837 0 3.608.363 5.311 1.09a14.346 14.346 0 0 1 4.556 3.088 13.18 13.18 0 0 1 2.4 3.266 15.527 15.527 0 0 1 1.377 3.8c.208-.296.43-.585.667-.866.237-.282.49-.57.756-.866a14.344 14.344 0 0 1 4.556-3.09 13.516 13.516 0 0 1 5.355-1.089h2.044c.415 0 .763.141 1.045.423.281.281.422.63.422 1.044v2.088c0 1.897-.356 3.72-1.067 5.467a13.854 13.854 0 0 1-3.066 4.623 14.106 14.106 0 0 1-4.534 3.067A13.605 13.605 0 0 1 26 31.11h-.533v7.11c0 .416-.141.764-.423 1.045-.281.282-.63.422-1.044.422Z"/></svg>