<svg xmlns="http://www.w3.org/2000/svg" width="48" height="48" fill="none"><path fill="#fff" d="M35.667 25.389c-.398 0-.73-.132-.993-.396a1.347 1.347 0 0 1-.396-.993c0-.398.132-.73.396-.993.264-.264.595-.396.993-.396h3.611c.398 0 .73.132.993.396.264.264.396.595.396.993s-.132.73-.396.993a1.347 1.347 0 0 1-.993.396h-3.611ZM35.222 36.5l-2.916-2.167a1.38 1.38 0 0 1-.556-.916c-.055-.37.037-.713.278-1.028.24-.315.546-.5.917-.556.37-.055.713.037 1.027.278l2.917 2.167c.315.24.5.546.556.916.055.37-.037.713-.278 1.028-.24.315-.547.5-.917.556a1.314 1.314 0 0 1-1.028-.278Zm-1.166-20.639c-.315.24-.658.333-1.028.278a1.38 1.38 0 0 1-.917-.556 1.313 1.313 0 0 1-.277-1.027c.055-.37.24-.676.555-.917l2.833-2.139c.315-.24.658-.333 1.028-.278.37.056.676.24.917.556.24.315.333.657.278 1.027a1.38 1.38 0 0 1-.556.917l-2.833 2.139ZM12.61 35.667V29h-2.5c-.768 0-1.423-.27-1.965-.813a2.677 2.677 0 0 1-.813-1.965v-4.444c0-.769.271-1.424.813-1.965A2.677 2.677 0 0 1 10.111 19h7.223l6.236-3.75c.463-.278.928-.278 1.395 0 .468.278.702.68.702 1.208v15.084c0 .527-.234.93-.702 1.208-.467.278-.932.278-1.395 0L17.334 29h-1.945v6.667h-2.778Zm14.723-6.084V18.417a7.612 7.612 0 0 1 1.812 2.437c.458.959.688 2.007.688 3.146 0 1.139-.23 2.188-.688 3.146a7.612 7.612 0 0 1-1.813 2.437Z"/></svg>