<svg xmlns="http://www.w3.org/2000/svg" width="48" height="48" fill="none"><path fill="#fff" d="M24 10.667a2.667 2.667 0 0 1 1.334 4.973v1.693h1.333A9.333 9.333 0 0 1 36 26.667h1.334A1.333 1.333 0 0 1 38.666 28v4a1.333 1.333 0 0 1-1.334 1.333H36v1.334a2.667 2.667 0 0 1-2.666 2.666H14.666A2.667 2.667 0 0 1 12 34.667v-1.334h-1.333A1.333 1.333 0 0 1 9.334 32v-4a1.333 1.333 0 0 1 1.333-1.333H12a9.333 9.333 0 0 1 9.334-9.334h1.333V15.64A2.667 2.667 0 0 1 24 10.667Zm-6 14.666a3.334 3.334 0 1 0 0 6.668 3.334 3.334 0 0 0 0-6.668Zm12 0a3.334 3.334 0 1 0 0 6.668 3.334 3.334 0 0 0 0-6.668Z"/></svg>