<svg xmlns="http://www.w3.org/2000/svg" width="48" height="48" fill="none"><g clip-path="url(#a)"><path fill="#616587" d="M37.33 39.502 26.693 28.867c-.905.753-1.961 1.35-3.168 1.787a11.056 11.056 0 0 1-3.802.657c-3.289 0-6.065-1.132-8.328-3.395C9.132 25.653 8 22.906 8 19.678c0-3.229 1.132-5.982 3.395-8.26C13.658 9.139 16.419 8 19.678 8c3.228 0 5.974 1.14 8.237 3.418 2.263 2.278 3.395 5.031 3.395 8.26 0 1.297-.211 2.542-.634 3.734a11.487 11.487 0 0 1-1.855 3.326l10.727 10.638c.301.302.452.656.452 1.063 0 .408-.166.762-.498 1.063a1.508 1.508 0 0 1-1.109.453c-.437 0-.791-.15-1.063-.453ZM19.678 28.278c2.384 0 4.413-.838 6.087-2.513 1.675-1.674 2.513-3.703 2.513-6.087s-.838-4.42-2.513-6.11c-1.674-1.69-3.703-2.535-6.087-2.535-2.414 0-4.459.845-6.134 2.534-1.674 1.69-2.511 3.727-2.511 6.11 0 2.385.837 4.414 2.511 6.088 1.675 1.675 3.72 2.513 6.134 2.513Z"/></g><defs><clipPath id="a"><path fill="#fff" d="M0 0h48v48H0z"/></clipPath></defs></svg>