<svg xmlns="http://www.w3.org/2000/svg" width="48" height="48" fill="none"><path fill="#fff" d="M9.333 34.667v-5.334c0-.681.239-1.259.717-1.733a2.364 2.364 0 0 1 1.727-.711h4.59c.4 0 .78.1 1.144.3.363.2.666.474.91.822a6.692 6.692 0 0 0 2.44 2.122A6.779 6.779 0 0 0 24 30.89a6.802 6.802 0 0 0 3.15-.756 6.786 6.786 0 0 0 2.45-2.122c.259-.348.564-.622.916-.822.352-.2.724-.3 1.117-.3h4.589c.681 0 1.26.237 1.733.71.474.475.711 1.053.711 1.734v5.334h-8.888V31.01a8.738 8.738 0 0 1-2.673 1.556A8.942 8.942 0 0 1 24 33.11a8.783 8.783 0 0 1-3.09-.55A9.139 9.139 0 0 1 18.223 31v3.667H9.333ZM24 29.11c-.8 0-1.567-.187-2.3-.561A4.892 4.892 0 0 1 19.9 27a4.304 4.304 0 0 0-1.328-1.261 4.24 4.24 0 0 0-1.694-.584c.592-.718 1.61-1.276 3.055-1.672 1.445-.396 2.8-.594 4.067-.594 1.266 0 2.626.198 4.077.594 1.452.396 2.474.954 3.067 1.672-.6.075-1.163.269-1.689.584-.526.315-.97.735-1.333 1.26a4.72 4.72 0 0 1-1.789 1.556 5.107 5.107 0 0 1-2.333.556Zm-10.667-4.222c-1.037 0-1.926-.37-2.667-1.111-.74-.741-1.11-1.63-1.11-2.667 0-1.06.37-1.954 1.11-2.683a3.665 3.665 0 0 1 2.667-1.095c1.06 0 1.954.365 2.683 1.095.73.73 1.095 1.624 1.095 2.683a3.664 3.664 0 0 1-1.095 2.667c-.73.74-1.624 1.11-2.683 1.11Zm21.333 0c-1.037 0-1.926-.37-2.666-1.111-.741-.741-1.111-1.63-1.111-2.667 0-1.06.37-1.954 1.11-2.683a3.665 3.665 0 0 1 2.667-1.095c1.06 0 1.954.365 2.684 1.095.73.73 1.094 1.624 1.094 2.683a3.665 3.665 0 0 1-1.094 2.667c-.73.74-1.624 1.11-2.684 1.11Zm-10.666-4c-1.037 0-1.926-.37-2.667-1.111-.74-.741-1.111-1.63-1.111-2.667 0-1.06.37-1.954 1.111-2.683A3.665 3.665 0 0 1 24 13.333c1.059 0 1.953.365 2.683 1.095.73.73 1.094 1.624 1.094 2.683a3.665 3.665 0 0 1-1.094 2.667c-.73.74-1.624 1.11-2.683 1.11Z"/></svg>