<svg xmlns="http://www.w3.org/2000/svg" width="48" height="48" fill="none">
  <defs>
    <symbol viewbox="0 0 48 48" id="icon-chemistry">
      <path d="M11.055 39.173c-1.299 0-2.215-.592-2.75-1.775-.533-1.184-.368-2.28.498-3.29l10.348-11.95V10.9h-2.079c-.403 0-.742-.144-1.017-.433a1.456 1.456 0 0 1-.411-1.04c0-.403.137-.742.411-1.017A1.382 1.382 0 0 1 17.072 8h13.856c.403 0 .742.137 1.017.411.274.275.411.614.411 1.018 0 .433-.137.786-.411 1.06a1.382 1.382 0 0 1-1.017.412h-2.079v11.257l10.348 11.95c.866 1.01 1.031 2.106.497 3.29-.534 1.183-1.45 1.775-2.75 1.775H11.056Z"/>
    </symbol>
    <symbol viewbox="0 0 48 48" id="icon-digital_media">
      <path d="m18 34 5.334-3.333L18 27.333V34Zm7.334-15.667h5.333v-2h-5.334v2ZM12 38.667a2.569 2.569 0 0 1-1.884-.784A2.563 2.563 0 0 1 9.334 36V25.333c0-.733.26-1.361.784-1.884A2.563 2.563 0 0 1 12 22.667h16c.733 0 1.361.26 1.884.784.523.522.784 1.15.783 1.882V36c0 .733-.262 1.361-.784 1.884a2.562 2.562 0 0 1-1.883.783H12Zm20.667-12v-1.334c0-.844-.206-1.622-.617-2.333a4.49 4.49 0 0 0-1.65-1.667h.267c1.11 0 2.055-.389 2.833-1.166.778-.778 1.167-1.723 1.167-2.834 0-1.11-.39-2.055-1.167-2.833-.778-.778-1.722-1.167-2.833-1.167H29v2h1.667a1.93 1.93 0 0 1 1.417.584c.39.39.584.862.583 1.416a1.93 1.93 0 0 1-.584 1.418c-.39.389-.861.583-1.416.582H29v1.434a2.97 2.97 0 0 0-.5-.084 6.315 6.315 0 0 0-.5-.016h-1v-1.334h-1.666a1.93 1.93 0 0 1-1.418-.584 1.924 1.924 0 0 1-.582-1.416c0-.555.194-1.028.584-1.417.389-.39.86-.584 1.416-.583H27v-2h-1.666c-1.112 0-2.056.39-2.834 1.167-.778.778-1.166 1.722-1.166 2.833 0 .711.166 1.35.5 1.918.333.567.766 1.039 1.3 1.416h-5.8V12c0-.733.26-1.361.784-1.884A2.563 2.563 0 0 1 20 9.333h16c.733 0 1.361.262 1.884.784.523.523.784 1.15.783 1.883v12c0 .733-.261 1.361-.784 1.884a2.562 2.562 0 0 1-1.883.783h-3.333Z"/>
    </symbol>
    <symbol viewbox="0 0 48 48" id="icon-emotional_intelligence">
      <path d="m22.125 37.333-2.458-2.25c-3.278-3.027-6.153-5.951-8.625-8.771-2.473-2.82-3.709-5.812-3.709-8.979 0-2.527.854-4.645 2.563-6.354 1.708-1.708 3.812-2.562 6.312-2.562 1.445 0 2.848.333 4.209 1 1.36.667 2.555 1.694 3.583 3.083 1.111-1.389 2.32-2.416 3.625-3.083a9.035 9.035 0 0 1 4.167-1c2.5 0 4.604.854 6.312 2.562 1.709 1.709 2.563 3.827 2.563 6.354 0 3.167-1.236 6.167-3.709 9-2.472 2.833-5.36 5.764-8.666 8.792l-2.417 2.208c-.528.5-1.153.75-1.875.75s-1.347-.25-1.875-.75Z"/>
    </symbol>
  </defs>
</svg>