<svg width="48" height="48" viewBox="0 0 48 48" fill="none" xmlns="http://www.w3.org/2000/svg">
<path d="M11.4057 32.743V14.0093C11.4057 13.1913 11.7029 12.485 12.2973 11.8906C12.891 11.2969 13.5973 11 14.416 11H36.9508C37.3734 11 37.7299 11.1451 38.0201 11.4353C38.3103 11.7256 38.4554 12.082 38.4554 12.5047C38.4554 12.9273 38.3103 13.2838 38.0201 13.574C37.7299 13.8642 37.3734 14.0093 36.9508 14.0093H14.416V32.743H21.2274C21.835 32.743 22.3499 32.954 22.7719 33.376C23.1946 33.7987 23.4059 34.3136 23.4059 34.9206C23.4059 35.5017 23.1946 36.0036 22.7719 36.4262C22.3499 36.8483 21.835 37.0593 21.2274 37.0593H10.2175C9.61049 37.0593 9.09563 36.8483 8.67296 36.4262C8.2503 36.0036 8.02598 35.4887 8 34.8817C8 34.3006 8.21101 33.7987 8.63304 33.376C9.0557 32.954 9.57057 32.743 10.1776 32.743H11.4057ZM27.5245 37.0593C27.0759 37.0593 26.6931 36.9009 26.3763 36.584C26.0594 36.2672 25.901 35.8448 25.901 35.317V18.1289C25.901 17.6796 26.0528 17.2965 26.3563 16.9797C26.6599 16.6628 27.0492 16.5044 27.5245 16.5044H38.099C38.6275 16.5044 39.0764 16.6628 39.4459 16.9797C39.8153 17.2965 40 17.6796 40 18.1289V35.317C40 35.8448 39.8153 36.2672 39.4459 36.584C39.0764 36.9009 38.6275 37.0593 38.099 37.0593H27.5245ZM28.6737 32.743H37.2283V19.2771H28.6737V32.743Z" fill="white"/>
</svg>
