<svg xmlns="http://www.w3.org/2000/svg" width="48" height="48" fill="none"><path fill="#fff" d="M36.918 15.92c-.348.804-1.488.804-1.836 0l-.802-1.853a1 1 0 0 0-.512-.517l-1.998-.886c-.793-.351-.793-1.477 0-1.828l2.005-.889a1 1 0 0 0 .507-.504l.806-1.791c.354-.787 1.47-.787 1.824 0l.806 1.791a1 1 0 0 0 .507.504l2.005.889c.793.351.793 1.477 0 1.828l-1.998.886a1 1 0 0 0-.512.517l-.802 1.854Zm-.005 24.363c-.352.79-1.474.79-1.826 0l-.804-1.803a1 1 0 0 0-.515-.51l-1.969-.854c-.799-.347-.803-1.479-.007-1.832l1.976-.876a1 1 0 0 0 .512-.517l.802-1.853c.348-.804 1.488-.804 1.836 0l.802 1.853a1 1 0 0 0 .512.517l1.976.876c.796.353.792 1.485-.007 1.832l-1.97.854a1 1 0 0 0-.514.51l-.804 1.803Zm-17.756-5.855a1 1 0 0 1-1.814 0l-2.895-6.218a1 1 0 0 0-.493-.488l-6.272-2.849c-.784-.356-.782-1.47.003-1.822l6.266-2.815a1 1 0 0 0 .497-.49l2.894-6.216a1 1 0 0 1 1.814 0l2.894 6.216a1 1 0 0 0 .497.49l6.266 2.815c.785.353.787 1.466.003 1.822l-6.272 2.849a1 1 0 0 0-.493.488l-2.895 6.218Z"/></svg>