<svg xmlns="http://www.w3.org/2000/svg" width="64" height="64" fill="none"><g clip-path="url(#a)"><rect width="44" height="44" x="10" y="10" fill="#fff" rx="22"/><path fill="#616587" d="M31.996 40.6c.583 0 1.07-.196 1.461-.587.392-.391.587-.878.587-1.461v-7.357l2.302 2.3c.397.398.875.597 1.434.597.559 0 1.037-.199 1.434-.596.398-.398.596-.876.596-1.434 0-.56-.198-1.037-.596-1.435l-5.784-5.784a1.893 1.893 0 0 0-.674-.467 2.09 2.09 0 0 0-.76-.138c-.27 0-.523.046-.76.138a1.894 1.894 0 0 0-.675.467l-5.784 5.784a1.956 1.956 0 0 0-.596 1.435c0 .558.199 1.037.596 1.434.397.397.876.596 1.434.596.56 0 1.038-.199 1.435-.596l2.301-2.301v7.357c0 .583.196 1.07.587 1.461.392.391.879.587 1.462.587Zm0 13.4c-3.093 0-5.978-.566-8.656-1.697-2.678-1.13-5.005-2.685-6.982-4.661-1.976-1.977-3.53-4.304-4.661-6.982C10.566 37.982 10 35.097 10 32.004c0-3.074.566-5.948 1.697-8.624 1.13-2.675 2.685-5.002 4.661-6.981 1.977-1.98 4.304-3.541 6.982-4.684C26.018 10.572 28.903 10 31.996 10c3.074 0 5.948.572 8.624 1.715 2.675 1.143 5.002 2.704 6.981 4.684 1.98 1.98 3.541 4.306 4.684 6.981C53.428 26.055 54 28.93 54 32.004c0 3.093-.572 5.978-1.715 8.656-1.143 2.678-2.704 5.005-4.684 6.982-1.98 1.976-4.306 3.53-6.981 4.661C37.945 53.434 35.07 54 31.996 54Z"/></g><defs><clipPath id="a"><rect width="44" height="44" x="10" y="10" fill="#fff" rx="22"/></clipPath></defs></svg>