<svg xmlns="http://www.w3.org/2000/svg" width="48" height="48" fill="none"><path fill="#fff" d="M28.525 40.586c-.435 0-.8-.155-1.096-.466a1.51 1.51 0 0 1-.444-1.073c0-.466.148-.847.444-1.143.295-.296.66-.443 1.096-.443 1.71 0 3.172-.342 4.385-1.026 1.213-.684 1.82-1.477 1.82-2.379 0-.622-.374-1.221-1.12-1.797a7.241 7.241 0 0 0-1.448-.846c-.692-.312-.928-1.231-.391-1.768l.738-.739a.957.957 0 0 1 1.04-.22c1.353.558 2.384 1.26 3.092 2.104.81.965 1.214 2.053 1.214 3.266 0 2.083-.956 3.692-2.87 4.828-1.912 1.135-4.065 1.702-6.46 1.702ZM13.128 26.268a.957.957 0 0 1-.98.24c-1.333-.45-2.334-1.053-3.005-1.806C8.381 23.848 8 22.922 8 21.927c0-1.15.428-2.169 1.283-3.055.855-.886 2.682-1.858 5.481-2.916 2.021-.808 3.32-1.422 3.895-1.842.576-.42.863-.91.863-1.47 0-.684-.334-1.275-1.003-1.773-.668-.497-1.687-.745-3.055-.745-.809 0-1.501.1-2.077.303a4.129 4.129 0 0 0-1.562 1.002c-.28.28-.63.444-1.05.49-.42.047-.8-.07-1.143-.35-.373-.28-.575-.622-.605-1.025-.032-.405.093-.778.372-1.12.56-.684 1.377-1.26 2.45-1.726 1.072-.467 2.277-.7 3.615-.7 2.146 0 3.872.505 5.178 1.516 1.306 1.01 1.96 2.387 1.96 4.129 0 1.243-.444 2.324-1.33 3.242-.887.917-2.652 1.889-5.295 2.915-1.99.777-3.297 1.376-3.919 1.796-.621.42-.932.862-.932 1.329 0 .436.334.848 1.003 1.237.35.204.793.401 1.328.592.73.26.987 1.197.439 1.745l-.768.767Zm24.594-6.914a1 1 0 0 1-1.414 0l-5.21-5.21a1 1 0 0 1 0-1.414l1.345-1.345c.623-.622 1.338-.933 2.146-.933.809 0 1.508.31 2.1.933l2.378 2.38c.622.59.933 1.29.933 2.098 0 .809-.31 1.524-.933 2.146l-1.345 1.345ZM10.66 40.586a.763.763 0 0 1-.56-.233.766.766 0 0 1-.233-.56V34.29c0-.052.054-.19.162-.414a.954.954 0 0 1 .186-.26l17.278-17.278a1 1 0 0 1 1.414 0l5.21 5.21a1 1 0 0 1 0 1.414L16.723 40.353c-.026.026-.158.083-.395.172a.973.973 0 0 1-.342.061H10.66Z"/></svg>