<svg xmlns="http://www.w3.org/2000/svg" width="48" height="48" fill="none"><path fill="#fff" d="M24 40.667c-.935 0-1.73-.327-2.382-.98-.653-.652-.98-1.446-.98-2.381h6.723c0 .935-.326 1.729-.979 2.382-.653.652-1.447.979-2.382.979Zm-5.333-5.64c-.399 0-.73-.131-.993-.395a1.347 1.347 0 0 1-.396-.993c0-.398.132-.73.396-.993.264-.264.595-.396.993-.396h10.666c.399 0 .73.132.993.396.264.264.396.595.396.993s-.132.729-.396.993a1.347 1.347 0 0 1-.993.396H18.667ZM17.555 30c-1.86-1.176-3.335-2.68-4.423-4.514-1.088-1.833-1.632-3.875-1.632-6.125 0-3.417 1.23-6.354 3.688-8.812C17.645 8.09 20.582 6.86 24 6.86s6.354 1.23 8.813 3.688c2.458 2.458 3.687 5.395 3.687 8.812 0 2.25-.54 4.292-1.618 6.125-1.079 1.833-2.558 3.338-4.437 4.514h-12.89Z"/></svg>