<svg xmlns="http://www.w3.org/2000/svg" width="48" height="48" fill="none"><path fill="#fff" d="M24.042 30.389c-.648 0-1.174-.227-1.577-.68-.402-.454-.567-1-.493-1.64.12-1.055.412-1.986.875-2.791.463-.806 1.18-1.64 2.153-2.5 1.157-1.037 2.044-1.98 2.66-2.827.616-.847.923-1.772.923-2.775 0-1.21-.406-2.218-1.219-3.023-.813-.806-1.943-1.209-3.392-1.209-.981 0-1.802.201-2.462.603-.66.401-1.196.9-1.607 1.495-.333.481-.752.81-1.257.986a2.005 2.005 0 0 1-1.473-.033c-.578-.247-.948-.67-1.11-1.273-.162-.602-.086-1.153.229-1.653.787-1.176 1.828-2.148 3.122-2.916C20.71 9.384 22.228 9 23.972 9c2.828 0 5.002.786 6.524 2.36 1.521 1.572 2.282 3.46 2.282 5.665 0 1.345-.29 2.542-.868 3.593-.579 1.051-1.498 2.183-2.757 3.396-.963.926-1.639 1.676-2.028 2.25a4.858 4.858 0 0 0-.764 1.972 2.57 2.57 0 0 1-.79 1.542 2.161 2.161 0 0 1-1.53.61Zm-.072 10.278c-.841 0-1.56-.3-2.157-.899a2.949 2.949 0 0 1-.896-2.16c0-.84.3-1.56.898-2.157a2.949 2.949 0 0 1 2.16-.895c.84 0 1.56.299 2.157.898s.896 1.319.896 2.16c0 .84-.3 1.56-.898 2.157a2.948 2.948 0 0 1-2.16.896Z"/></svg>