<svg xmlns="http://www.w3.org/2000/svg" width="48" height="48" fill="none"><g clip-path="url(#a)"><path fill="red" d="M35.47 18.632a3.017 3.017 0 0 0-2.124-2.124C31.484 16 23.988 16 23.988 16s-7.496.015-9.359.523a3.017 3.017 0 0 0-2.124 2.125c-.563 3.309-.782 8.351.016 11.528a3.017 3.017 0 0 0 2.124 2.124c1.862.508 9.358.508 9.358.508s7.496 0 9.358-.508a3.015 3.015 0 0 0 2.124-2.124c.595-3.314.778-8.353-.015-11.544Z"/><path fill="#fff" d="m21.602 28.006 6.218-3.602-6.218-3.602v7.204Z"/></g><defs><clipPath id="a"><path fill="#fff" d="M12 16h24v16.875H12z"/></clipPath></defs></svg>